<?xml version="1.0" encoding="UTF-8" standalone="no"?>
<!-- Created with Inkscape (http://www.inkscape.org/) -->

<svg
   xmlns:dc="http://purl.org/dc/elements/1.1/"
   xmlns:cc="http://creativecommons.org/ns#"
   xmlns:rdf="http://www.w3.org/1999/02/22-rdf-syntax-ns#"
   xmlns:svg="http://www.w3.org/2000/svg"
   xmlns="http://www.w3.org/2000/svg"
   xmlns:sodipodi="http://sodipodi.sourceforge.net/DTD/sodipodi-0.dtd"
   xmlns:inkscape="http://www.inkscape.org/namespaces/inkscape"
   id="svg2"
   version="1.1"
   inkscape:version="0.48.2 r9819"
   width="375"
   height="75"
   xml:space="preserve"
   sodipodi:docname="knight-logo.eps"><metadata
     id="metadata8"><rdf:RDF><cc:Work
         rdf:about=""><dc:format>image/svg+xml</dc:format><dc:type
           rdf:resource="http://purl.org/dc/dcmitype/StillImage" /><dc:title></dc:title></cc:Work></rdf:RDF></metadata><defs
     id="defs6" /><sodipodi:namedview
     pagecolor="#ffffff"
     bordercolor="#666666"
     borderopacity="1"
     objecttolerance="10"
     gridtolerance="10"
     guidetolerance="10"
     inkscape:pageopacity="0"
     inkscape:pageshadow="2"
     inkscape:window-width="640"
     inkscape:window-height="480"
     id="namedview4"
     showgrid="false"
     inkscape:zoom="1.0586667"
     inkscape:cx="187.5"
     inkscape:cy="37.5"
     inkscape:window-x="0"
     inkscape:window-y="0"
     inkscape:window-maximized="0"
     inkscape:current-layer="g10" /><g
     id="g10"
     inkscape:groupmode="layer"
     inkscape:label="ink_ext_XXXXXX"
     transform="matrix(1.25,0,0,-1.25,0,75)"><g
       id="g12"
       transform="scale(0.1,0.1)"><path
         d="m 667.094,161.25 0,22.461 c 4.66,1.086 9.586,1.914 13.691,2.461 l -55.305,66.262 0,-65.442 c 5.747,-0.539 12.317,-1.633 18.071,-3.281 l 0,-22.461 -77.492,0 0,22.188 c 7.121,1.64 15.601,3.015 23.82,3.554 l 0,133.356 c -8.219,0.547 -16.699,1.914 -23.82,3.554 l 0,22.176 77.492,0 0,-22.445 c -5.754,-1.645 -12.324,-2.738 -18.071,-3.285 l 0,-61.344 54.758,62.156 c -4.383,0.281 -10.133,1.102 -14.238,2.473 l 0,22.445 75.023,0 0,-22.445 c -5.476,-1.098 -12.043,-2.192 -16.976,-2.738 l -58.594,-63.532 62.43,-70.91 c 5.203,-0.555 11.769,-1.656 17.25,-2.742 l 0,-22.461 -78.039,0"
         style="fill:#565353;fill-opacity:1;fill-rule:nonzero;stroke:none"
         id="path14" /><path
         d="m 861.781,161.25 0,87.078 c 0,13.969 -3.832,22.453 -16.699,22.453 -17.797,0 -31.758,-19.988 -31.758,-43.808 l 0,-39.981 c 6.571,-0.539 13.961,-1.633 19.988,-3.281 l 0,-22.461 -78.863,0 0,22.188 c 7.117,1.64 15.61,3.015 23.821,3.554 l 0,83.516 c -6.571,1.094 -15.875,2.187 -23.821,2.746 l 0,21.902 c 17.524,2.188 38.61,3.008 56.953,2.461 0,-6.301 -0.547,-17.258 -1.914,-24.648 l 0.27,0 c 8.215,15.879 24.097,27.113 46.277,27.113 30.664,0 40.527,-19.445 40.527,-43.266 l 0,-69.824 c 7.942,-0.539 15.879,-1.914 22.176,-3.554 l 0,-22.188 -56.957,0"
         style="fill:#565353;fill-opacity:1;fill-rule:nonzero;stroke:none"
         id="path16" /><path
         d="m 967.48,317.605 c -11.773,0 -21.628,9.309 -21.628,21.083 0,11.777 9.855,21.363 21.628,21.363 12.051,0 21.907,-9.313 21.907,-21.363 0,-11.5 -9.856,-21.083 -21.907,-21.083 z m -41.343,-156.355 0,22.188 c 7.121,1.64 15.605,3.015 23.82,3.554 l 0,83.516 c -6.566,1.094 -15.879,2.187 -23.82,2.746 l 0,21.902 c 17.523,2.188 38.609,3.008 58.867,2.461 l 0,-110.625 c 7.668,-0.539 15.616,-1.914 22.186,-3.554 l 0,-22.188 -81.053,0"
         style="fill:#565353;fill-opacity:1;fill-rule:nonzero;stroke:none"
         id="path18" /><path
         d="m 1079.48,274.895 c -15.88,0 -25.2,-10.129 -25.2,-23.821 0,-14.519 8.77,-23.547 25.2,-23.547 15.33,0 24.64,8.75 24.64,23.266 0,14.512 -8.49,24.102 -24.64,24.102 z m 14.78,-115.278 -23.54,0.813 -6.3,0 c -7.94,-5.75 -12.6,-13.133 -12.6,-20.801 0,-12.609 11.5,-20.274 29.02,-20.274 22.73,0 34.78,9.875 34.78,22.735 0,9.863 -6.3,16.972 -21.36,17.527 z m -18.62,-67.0897 c -36.14,0 -58.32,13.9647 -58.32,40.5317 0,14.238 9.86,27.371 21.08,33.406 -8.2,3.828 -13.41,11.504 -13.41,20.808 0,10.676 6.84,20.266 16.15,24.36 -12.59,6.851 -20.26,19.453 -20.26,37.246 0,27.391 20.26,51.476 59.96,51.476 8.77,0 14.79,-1.097 22.18,-3.011 l 46.28,0 0,-27.383 -18.62,0 c 4.38,-4.102 6.84,-10.125 6.84,-17.258 0,-29.019 -19.43,-49.012 -58.32,-49.012 -3.83,0 -6.84,0.274 -10.67,1.094 -4.39,-1.914 -6.58,-5.469 -6.58,-8.75 0,-6.308 5.2,-7.949 21.09,-8.496 l 21.08,-0.82 c 29.3,-1.094 46.28,-13.684 46.28,-39.981 0,-29.289 -29.57,-54.2107 -74.76,-54.2107"
         style="fill:#565353;fill-opacity:1;fill-rule:nonzero;stroke:none"
         id="path20" /><path
         d="m 1263.49,161.25 0,87.078 c 0,13.969 -3.84,22.453 -16.7,22.453 -17.8,0 -31.77,-19.988 -31.77,-44.082 l 0,-39.707 c 6.85,-0.539 13.97,-1.633 19.99,-3.281 l 0,-22.461 -76.93,0 0,22.188 c 6.56,1.64 14.5,3.015 22.17,3.554 l 0,147.32 c -6.57,1.086 -15.61,2.188 -23,2.735 l 0,21.902 c 16.97,2.188 37.78,3.02 57.77,2.469 l 0,-58.879 c 0,-8.203 -0.54,-19.434 -2.19,-27.644 l 0.27,0 c 7.95,15.054 23.56,25.187 44.91,25.187 30.67,0 40.53,-19.445 40.53,-43.266 l 0,-69.824 c 7.12,-0.539 15.33,-1.914 21.9,-3.554 l 0,-22.188 -56.95,0"
         style="fill:#565353;fill-opacity:1;fill-rule:nonzero;stroke:none"
         id="path22" /><path
         d="m 1385.89,158.523 c -30.12,0 -39.43,10.942 -39.43,42.707 l 0,69.004 -23.55,0 0,27.11 23.55,0 0,41.894 34.78,9.313 0,-51.207 33.13,0 0,-27.11 -33.13,0 0,-59.699 c 0,-17.508 4.1,-22.449 16.14,-22.449 5.76,0 10.96,0.547 15.61,1.914 l 2.47,-27.645 c -8.76,-2.199 -19.99,-3.832 -29.57,-3.832"
         style="fill:#565353;fill-opacity:1;fill-rule:nonzero;stroke:none"
         id="path24" /><path
         d="m 1583.58,298.711 c -1.09,6.301 -2.18,12.32 -2.73,18.894 l -36.97,0 0,-50.925 30.94,0 c 0.54,5.195 1.64,10.398 3.01,15.058 l 22.73,0 0,-57.226 -22.73,0 c -1.37,4.66 -2.47,9.59 -3.01,15.058 l -30.94,0 0,-52.578 c 8.22,-0.539 16.71,-1.914 23.82,-3.554 l 0,-22.188 -83.24,0 0,22.188 c 7.11,1.64 15.61,3.015 23.82,3.554 l 0,133.356 c -8.21,0.547 -16.71,1.914 -23.82,3.554 l 0,22.176 125.69,0 0,-47.367 -26.57,0"
         style="fill:#565353;fill-opacity:1;fill-rule:nonzero;stroke:none"
         id="path26" /><path
         d="m 1692.29,270.508 c -15.88,0 -30.94,-12.051 -30.94,-40.801 0,-27.102 9.86,-41.34 30.39,-41.34 17.25,0 30.4,13.969 30.4,40.805 0,27.098 -9.85,41.336 -29.85,41.336 z m -3.56,-111.985 c -38.6,0 -63.52,19.993 -63.52,67.903 0,43 28.21,73.656 69.54,73.656 38.62,0 63.53,-21.09 63.53,-67.914 0,-42.98 -28.48,-73.645 -69.55,-73.645"
         style="fill:#565353;fill-opacity:1;fill-rule:nonzero;stroke:none"
         id="path28" /><path
         d="m 1876.02,160.977 c 0,6.843 0.55,16.992 1.65,24.648 l -0.55,0 c -7.94,-15.879 -23.83,-27.102 -46.01,-27.102 -30.93,0 -40.8,19.446 -40.8,43.262 l 0,68.723 c -6.57,1.094 -14.77,2.187 -21.9,2.746 l 0,22.176 c 15.89,1.914 36.7,2.734 56.95,2.187 l 0,-87.351 c 0,-13.965 3.84,-22.454 16.71,-22.454 17.79,0 31.77,19.993 31.77,43.809 l 0,39.16 c -5.76,0.821 -13.16,1.914 -19.99,2.473 l 0,22.449 c 16.15,1.641 35.87,2.461 54.75,1.914 l 0,-109.531 c 6.58,-1.094 15.07,-2.188 22.18,-2.727 l 0,-22.183 c -15.87,-1.926 -36.95,-2.746 -54.76,-2.199"
         style="fill:#565353;fill-opacity:1;fill-rule:nonzero;stroke:none"
         id="path30" /><path
         d="m 2045.8,161.25 0,87.078 c 0,13.969 -3.85,22.453 -16.71,22.453 -17.8,0 -31.77,-19.988 -31.77,-43.808 l 0,-39.981 c 6.58,-0.539 13.97,-1.633 19.98,-3.281 l 0,-22.461 -78.84,0 0,22.188 c 7.12,1.64 15.6,3.015 23.82,3.554 l 0,83.516 c -6.58,1.094 -15.88,2.187 -23.82,2.746 l 0,21.902 c 17.53,2.188 38.61,3.008 56.94,2.461 0,-6.301 -0.54,-17.258 -1.91,-24.648 l 0.28,0 c 8.2,15.879 24.09,27.113 46.28,27.113 30.65,0 40.52,-19.445 40.52,-43.266 l 0,-69.824 c 7.94,-0.539 15.88,-1.914 22.17,-3.554 l 0,-22.188 -56.94,0"
         style="fill:#565353;fill-opacity:1;fill-rule:nonzero;stroke:none"
         id="path32" /><path
         d="m 2202.15,269.961 c -6.31,1.379 -12.33,2.187 -18.35,2.187 -19.99,0 -34.23,-12.597 -34.23,-46.269 0,-25.469 7.39,-38.606 23.28,-38.606 18.34,0 29.3,21.348 29.3,44.622 l 0,38.066 z m 2.19,-108.984 c 0,6.843 0.54,15.617 1.64,23.007 l -0.55,0 c -7.12,-15.066 -22.18,-25.742 -42.99,-25.742 -33.13,0 -49.56,24.91 -49.56,63.801 0,46.004 26.83,77.769 72.01,77.769 5.75,0 11.22,-0.281 17.26,-1.101 l 0,35.601 c -6.57,1.086 -15.89,2.188 -23.83,2.735 l 0,21.902 c 17.26,2.188 38.6,3.02 58.59,2.469 l 0,-173.332 c 6.59,-1.094 15.62,-2.188 22.47,-2.727 l 0,-21.914 c -15.88,-2.195 -36.97,-3.015 -55.04,-2.468"
         style="fill:#565353;fill-opacity:1;fill-rule:nonzero;stroke:none"
         id="path34" /><path
         d="m 2347.82,221.492 c -31.21,0 -45.17,-6.844 -45.17,-20.801 0,-9.043 6.3,-15.613 16.42,-15.613 17.25,0 28.75,16.152 28.75,32.86 l 0,3.554 z m 3.01,-60.515 c 0,7.941 0,16.164 1.1,23.281 l -0.28,0.273 c -6.57,-15.332 -23.27,-26.008 -43.52,-26.008 -24.38,0 -38.89,15.051 -38.89,36.957 0,32.586 32.31,47.918 78.58,48.465 l 0,7.942 c 0,14.519 -5.75,22.73 -24.1,22.73 -6.57,0 -14.24,-1.363 -19.99,-3.277 -0.54,-5.219 -1.36,-11.789 -2.73,-17.817 l -21.91,0 0,39.719 c 14.24,4.375 30.95,7.113 47.1,7.113 44.63,0 56.95,-17.523 56.95,-47.375 l 0,-64.894 c 6.58,-1.094 15.06,-2.188 22.18,-2.727 l 0,-22.183 c -15.88,-1.926 -36.96,-2.746 -54.49,-2.199"
         style="fill:#565353;fill-opacity:1;fill-rule:nonzero;stroke:none"
         id="path36" /><path
         d="m 2470.5,158.523 c -30.13,0 -39.44,10.942 -39.44,42.707 l 0,69.004 -23.54,0 0,27.11 23.54,0 0,41.894 34.78,9.313 0,-51.207 33.13,0 0,-27.11 -33.13,0 0,-59.699 c 0,-17.508 4.1,-22.449 16.16,-22.449 5.74,0 10.95,0.547 15.6,1.914 l 2.47,-27.645 c -8.77,-2.199 -19.99,-3.832 -29.57,-3.832"
         style="fill:#565353;fill-opacity:1;fill-rule:nonzero;stroke:none"
         id="path38" /><path
         d="m 2554.01,317.605 c -11.77,0 -21.63,9.309 -21.63,21.083 0,11.777 9.86,21.363 21.63,21.363 12.05,0 21.9,-9.313 21.9,-21.363 0,-11.5 -9.85,-21.083 -21.9,-21.083 z m -41.34,-156.355 0,22.188 c 7.12,1.64 15.6,3.015 23.82,3.554 l 0,83.516 c -6.58,1.094 -15.88,2.187 -23.82,2.746 l 0,21.902 c 17.52,2.188 38.6,3.008 58.86,2.461 l 0,-110.625 c 7.67,-0.539 15.62,-1.914 22.19,-3.554 l 0,-22.188 -81.05,0"
         style="fill:#565353;fill-opacity:1;fill-rule:nonzero;stroke:none"
         id="path40" /><path
         d="m 2670.94,270.508 c -15.89,0 -30.95,-12.051 -30.95,-40.801 0,-27.102 9.86,-41.34 30.39,-41.34 17.26,0 30.4,13.969 30.4,40.805 0,27.098 -9.85,41.336 -29.84,41.336 z m -3.57,-111.985 c -38.6,0 -63.52,19.993 -63.52,67.903 0,43 28.2,73.656 69.54,73.656 38.62,0 63.54,-21.09 63.54,-67.914 0,-42.98 -28.48,-73.645 -69.56,-73.645"
         style="fill:#565353;fill-opacity:1;fill-rule:nonzero;stroke:none"
         id="path42" /><path
         d="m 2857.68,161.25 0,87.078 c 0,13.969 -3.84,22.453 -16.7,22.453 -17.81,0 -31.76,-19.988 -31.76,-43.808 l 0,-39.981 c 6.57,-0.539 13.95,-1.633 19.98,-3.281 l 0,-22.461 -78.85,0 0,22.188 c 7.11,1.64 15.6,3.015 23.82,3.554 l 0,83.516 c -6.57,1.094 -15.89,2.187 -23.82,2.746 l 0,21.902 c 17.51,2.188 38.6,3.008 56.94,2.461 0,-6.301 -0.53,-17.258 -1.91,-24.648 l 0.27,0 c 8.22,15.879 24.1,27.113 46.27,27.113 30.68,0 40.54,-19.445 40.54,-43.266 l 0,-69.824 c 7.93,-0.539 15.87,-1.914 22.18,-3.554 l 0,-22.188 -56.96,0"
         style="fill:#565353;fill-opacity:1;fill-rule:nonzero;stroke:none"
         id="path44" /><path
         d="m 123.316,460.371 93.52,0 -93.52,-142.5 93.52,-155.469 -93.52,0 0,297.969"
         style="fill:#10427a;fill-opacity:1;fill-rule:nonzero;stroke:none"
         id="path46" /><path
         d="m 295.844,460.371 167.863,0 0,-61.086 -167.863,0 0,-52.445 167.863,0 0,-60.949 -167.863,0 0,-123.489 -100.063,155.469 100.063,142.5"
         style="fill:#10427a;fill-opacity:1;fill-rule:nonzero;stroke:none"
         id="path48" /></g></g></svg>