<?xml version="1.0" encoding="UTF-8" standalone="no"?>
<svg
   xmlns:dc="http://purl.org/dc/elements/1.1/"
   xmlns:cc="http://creativecommons.org/ns#"
   xmlns:rdf="http://www.w3.org/1999/02/22-rdf-syntax-ns#"
   xmlns:svg="http://www.w3.org/2000/svg"
   xmlns="http://www.w3.org/2000/svg"
   xmlns:sodipodi="http://sodipodi.sourceforge.net/DTD/sodipodi-0.dtd"
   xmlns:inkscape="http://www.inkscape.org/namespaces/inkscape"
   version="1.0"
   width="250.000000pt"
   height="250.000000pt"
   viewBox="0 0 250.000000 250.000000"
   preserveAspectRatio="xMidYMid meet"
   id="svg2"
   inkscape:version="0.48.2 r9819"
   sodipodi:docname="LNDATA.svg">
  <defs
     id="defs18" />
  <sodipodi:namedview
     pagecolor="#ffffff"
     bordercolor="#666666"
     borderopacity="1"
     objecttolerance="10"
     gridtolerance="10"
     guidetolerance="10"
     inkscape:pageopacity="0"
     inkscape:pageshadow="2"
     inkscape:window-width="933"
     inkscape:window-height="721"
     id="namedview16"
     showgrid="false"
     inkscape:zoom="0.7552"
     inkscape:cx="156.25"
     inkscape:cy="156.25"
     inkscape:window-x="0"
     inkscape:window-y="0"
     inkscape:window-maximized="0"
     inkscape:current-layer="svg2" />
  <metadata
     id="metadata4">
Created by potrace 1.11, written by Peter Selinger 2001-2013
<rdf:RDF>
  <cc:Work
     rdf:about="">
    <dc:format>image/svg+xml</dc:format>
    <dc:type
       rdf:resource="http://purl.org/dc/dcmitype/StillImage" />
  </cc:Work>
</rdf:RDF>
</metadata>
  <g
     transform="translate(0.000000,250.000000) scale(0.100000,-0.100000)"
     fill="#000000"
     stroke="none"
     id="g6"
     style="fill:#008000">
    <path
       d="M1013 2420 c-26 -109 -23 -281 6 -385 77 -279 282 -489 561 -577 64 -20 96 -23 220 -23 170 0 230 13 365 79 104 51 209 135 275 220 l45 58 5 349 5 349 -732 2 -733 3 -17 -75z m881 -104 c48 -15 126 -60 126 -74 0 -4 -31 -6 -69 -4 -75 4 -113 -9 -164 -57 -31 -28 -67 -91 -67 -116 0 -20 -29 -19 -92 5 -71 27 -118 74 -118 119 0 44 57 100 126 123 62 21 195 23 258 4z m132 -122 c48 -23 91 -78 104 -135 24 -97 -40 -200 -142 -228 -88 -25 -196 29 -228 114 -26 68 -4 172 46 216 57 50 154 64 220 33z m-373 -164 c58 -16 62 -19 68 -51 4 -19 10 -42 14 -51 6 -14 2 -18 -17 -18 -50 0 -130 32 -169 67 -34 31 -39 41 -39 79 l0 44 40 -26 c22 -15 68 -35 103 -44z m-50 -125 c19 -8 62 -19 95 -24 40 -6 77 -20 105 -40 24 -16 59 -34 78 -39 l34 -9 -28 -12 c-42 -16 -185 -14 -247 5 -78 23 -130 77 -130 134 l0 41 29 -21 c17 -11 45 -27 64 -35z m690 -55 c15 -8 30 -23 33 -33 6 -21 -21 -57 -43 -57 -20 0 -173 90 -173 101 0 6 10 23 22 39 l21 30 56 -32 c31 -18 68 -39 84 -48z m-748 -54 c109 -74 297 -82 419 -18 28 15 54 28 59 30 4 2 7 -14 7 -36 0 -70 -78 -125 -201 -142 -116 -17 -266 26 -306 87 -15 23 -30 103 -20 103 3 0 22 -11 42 -24z"
       id="path8"
       style="fill:#008000" />
    <path
       d="M1868 2145 c-90 -49 -89 -203 1 -250 38 -19 104 -19 142 0 89 47 93 193 6 245 -38 24 -110 26 -149 5z"
       id="path10"
       style="fill:#008000" />
    <path
       d="M580 1729 c-36 -4 -118 -11 -183 -15 l-118 -6 3 -42 3 -41 51 -6 c65 -8 72 -13 93 -58 14 -32 16 -101 19 -595 2 -343 -1 -585 -7 -625 -13 -87 -39 -111 -117 -111 l-54 0 0 -45 0 -45 306 0 305 0 -3 43 -3 42 -55 5 c-65 6 -75 11 -98 53 -16 29 -17 81 -17 642 -1 336 -2 656 -3 713 l-2 102 -27 -1 c-16 -1 -57 -5 -93 -10z"
       id="path12"
       style="fill:#008000" />
    <path
       d="M1665 1166 c-72 -23 -141 -64 -199 -116 -53 -50 -56 -51 -56 -26 0 32 -18 117 -29 134 -7 12 -22 11 -87 -3 -43 -10 -128 -25 -189 -34 l-110 -17 -3 -41 -3 -40 45 -5 c111 -13 118 -40 114 -430 -3 -251 -5 -287 -21 -316 -20 -37 -76 -66 -114 -59 -21 4 -23 1 -23 -39 l0 -44 285 0 285 0 0 40 c0 36 -2 40 -25 40 -14 0 -41 7 -61 15 -60 25 -64 47 -64 363 l0 278 43 51 c121 145 267 183 355 95 57 -57 62 -87 62 -373 0 -374 -12 -419 -112 -419 l-48 0 0 -45 0 -45 280 0 280 0 0 43 c0 41 -1 42 -34 44 -49 2 -71 17 -92 60 -17 35 -19 65 -19 338 -1 165 -4 316 -9 335 -22 90 -73 157 -151 198 -43 22 -65 26 -155 29 -68 2 -119 -2 -145 -11z"
       id="path14"
       style="fill:#008000" />
  </g>
</svg>
