<?xml version="1.0" encoding="UTF-8" standalone="no"?>
<!-- Created with Inkscape (http://www.inkscape.org/) -->

<svg
   xmlns:dc="http://purl.org/dc/elements/1.1/"
   xmlns:cc="http://creativecommons.org/ns#"
   xmlns:rdf="http://www.w3.org/1999/02/22-rdf-syntax-ns#"
   xmlns:svg="http://www.w3.org/2000/svg"
   xmlns="http://www.w3.org/2000/svg"
   xmlns:sodipodi="http://sodipodi.sourceforge.net/DTD/sodipodi-0.dtd"
   xmlns:inkscape="http://www.inkscape.org/namespaces/inkscape"
   id="svg2"
   version="1.1"
   inkscape:version="0.48.2 r9819"
   width="942.95"
   height="247.25"
   xml:space="preserve"
   sodipodi:docname="okfn-logo-landscape.eps"><metadata
     id="metadata8"><rdf:RDF><cc:Work
         rdf:about=""><dc:format>image/svg+xml</dc:format><dc:type
           rdf:resource="http://purl.org/dc/dcmitype/StillImage" /><dc:title></dc:title></cc:Work></rdf:RDF></metadata><defs
     id="defs6"><clipPath
       clipPathUnits="userSpaceOnUse"
       id="clipPath18"><path
         d="m 0,0 7543.57,0 0,1978 L 0,1978 0,0 z"
         id="path20" /></clipPath></defs><sodipodi:namedview
     pagecolor="#ffffff"
     bordercolor="#666666"
     borderopacity="1"
     objecttolerance="10"
     gridtolerance="10"
     guidetolerance="10"
     inkscape:pageopacity="0"
     inkscape:pageshadow="2"
     inkscape:window-width="640"
     inkscape:window-height="480"
     id="namedview4"
     showgrid="false"
     inkscape:zoom="0.42101914"
     inkscape:cx="471.47501"
     inkscape:cy="123.625"
     inkscape:window-x="191"
     inkscape:window-y="51"
     inkscape:window-maximized="0"
     inkscape:current-layer="g10" /><g
     id="g10"
     inkscape:groupmode="layer"
     inkscape:label="ink_ext_XXXXXX"
     transform="matrix(1.25,0,0,-1.25,0,247.25)"><g
       id="g12"
       transform="scale(0.1,0.1)"><g
         id="g14"><g
           id="g16"
           clip-path="url(#clipPath18)"><path
             d="m 2056.88,1290.79 c 0,-68.27 14.53,-120.05 43.61,-155.33 29.08,-35.28 71.31,-52.92 126.71,-52.92 55.86,0 98.04,17.57 126.55,52.75 28.49,35.17 42.75,86.99 42.75,155.5 0,67.8 -14.2,119.24 -42.59,154.3 -28.39,35.04 -70.39,52.57 -126.01,52.57 -55.86,0 -98.33,-17.64 -127.41,-52.93 -29.08,-35.28 -43.61,-86.6 -43.61,-153.94 z m 401.68,0 c 0,-80.68 -20.4,-144.12 -61.2,-190.32 -40.8,-46.21 -97.52,-69.31 -170.16,-69.31 -74.25,0 -131.53,22.7 -171.87,68.1 -40.34,45.38 -60.52,109.47 -60.52,192.22 0,82.06 20.22,145.68 60.68,190.84 40.46,45.17 97.93,67.75 172.41,67.75 72.4,0 128.95,-22.98 169.63,-68.96 40.69,-45.98 61.03,-109.41 61.03,-190.32"
             style="fill:#231f20;fill-opacity:1;fill-rule:nonzero;stroke:none"
             id="path22" /><path
             d="m 2729.91,1374.23 c -38.62,0 -66.55,-10.69 -83.78,-32.07 -17.25,-21.37 -26.1,-55.39 -26.55,-102.05 l 0,-12.77 c 0,-53.09 8.84,-91.08 26.55,-113.95 17.69,-22.87 46.08,-34.3 85.15,-34.3 32.64,0 58.22,13.21 76.72,39.65 18.51,26.42 27.76,62.86 27.76,109.3 0,47.11 -9.25,83.26 -27.76,108.43 -18.5,25.17 -44.54,37.76 -78.09,37.76 z m 8.28,-343.07 c -24.6,0 -47.07,4.54 -67.41,13.61 -20.35,9.09 -37.42,23.05 -51.2,41.9 l -4.15,0 c 2.77,-22.06 4.15,-42.99 4.15,-62.76 l 0,-155.488 -57.24,0 0,547.528 46.54,0 7.93,-51.72 2.77,0 c 14.7,20.69 31.83,35.62 51.37,44.82 19.53,9.19 41.95,13.79 67.24,13.79 50.11,0 88.78,-17.12 116.01,-51.37 27.24,-34.26 40.86,-82.29 40.86,-144.13 0,-62.06 -13.84,-110.27 -41.54,-144.64 -27.7,-34.36 -66.15,-51.54 -115.33,-51.54"
             style="fill:#231f20;fill-opacity:1;fill-rule:nonzero;stroke:none"
             id="path24" /><path
             d="m 3139.18,1374.92 c -30.34,0 -54.53,-9.89 -72.57,-29.66 -18.05,-19.76 -28.68,-47.12 -31.9,-82.06 l 197.57,0 c 0,36.09 -8.05,63.73 -24.13,82.93 -16.09,19.19 -39.08,28.79 -68.97,28.79 z m 15.52,-343.76 c -55.86,0 -99.93,17 -132.22,51.02 -32.3,34.03 -48.45,81.27 -48.45,141.71 0,60.92 15,109.31 45,145.17 30,35.85 70.27,53.78 120.85,53.78 47.35,0 84.81,-15.57 112.4,-46.72 27.58,-31.14 41.38,-72.23 41.38,-123.26 l 0,-36.2 -260.33,0 c 1.16,-44.37 12.36,-78.05 33.62,-101.03 21.26,-22.99 51.21,-34.48 89.82,-34.48 40.69,0 80.91,8.51 120.68,25.52 l 0,-51.03 c -20.23,-8.74 -39.37,-15 -57.41,-18.8 -18.04,-3.79 -39.82,-5.68 -65.34,-5.68"
             style="fill:#231f20;fill-opacity:1;fill-rule:nonzero;stroke:none"
             id="path26" /><path
             d="m 3649.82,1038.05 0,244.47 c 0,30.79 -7.01,53.78 -21.04,68.95 -14.02,15.17 -35.97,22.76 -65.85,22.76 -39.54,0 -68.5,-10.69 -86.89,-32.07 -18.39,-21.37 -27.58,-56.66 -27.58,-105.86 l 0,-198.25 -57.23,0 0,377.9 46.54,0 9.31,-51.72 2.76,0 c 11.73,18.62 28.15,33.04 49.31,43.27 21.14,10.22 44.7,15.34 70.68,15.34 45.51,0 79.75,-10.98 102.74,-32.92 22.99,-21.95 34.49,-57.07 34.49,-105.34 l 0,-246.53 -57.24,0"
             style="fill:#231f20;fill-opacity:1;fill-rule:nonzero;stroke:none"
             id="path28" /><path
             d="m 4380.78,1038.05 -68.96,0 -183.77,244.47 -52.76,-46.9 0,-197.57 -58.61,0 0,504.09 58.61,0 0,-249.98 228.6,249.98 69.31,0 -202.73,-218.94 210.31,-285.15"
             style="fill:#231f20;fill-opacity:1;fill-rule:nonzero;stroke:none"
             id="path30" /><path
             d="m 4700.06,1038.05 0,244.47 c 0,30.79 -7.01,53.78 -21.04,68.95 -14.02,15.17 -35.97,22.76 -65.84,22.76 -39.55,0 -68.51,-10.69 -86.89,-32.07 -18.4,-21.37 -27.58,-56.66 -27.58,-105.86 l 0,-198.25 -57.25,0 0,377.9 46.55,0 9.31,-51.72 2.76,0 c 11.74,18.62 28.16,33.04 49.31,43.27 21.14,10.22 44.71,15.34 70.69,15.34 45.51,0 79.74,-10.98 102.73,-32.92 22.99,-21.95 34.49,-57.07 34.49,-105.34 l 0,-246.53 -57.24,0"
             style="fill:#231f20;fill-opacity:1;fill-rule:nonzero;stroke:none"
             id="path32" /><path
             d="m 4913.14,1227.34 c 0,-48.26 9.65,-85.05 28.97,-110.33 19.3,-25.28 47.69,-37.92 85.16,-37.92 37.46,0 65.91,12.58 85.33,37.75 19.43,25.17 29.14,62 29.14,110.5 0,48.05 -9.71,84.53 -29.14,109.47 -19.42,24.95 -48.09,37.42 -86.02,37.42 -37.48,0 -65.74,-12.3 -84.82,-36.9 -19.08,-24.6 -28.62,-61.26 -28.62,-109.99 z m 287.9,0 c 0,-61.6 -15.51,-109.7 -46.55,-144.29 -31.03,-34.6 -73.9,-51.89 -128.61,-51.89 -33.79,0 -63.77,7.93 -89.98,23.79 -26.21,15.86 -46.45,38.61 -60.69,68.27 -14.25,29.65 -21.38,64.35 -21.38,104.12 0,61.6 15.41,109.59 46.21,143.96 30.8,34.36 73.55,51.54 128.26,51.54 52.87,0 94.86,-17.58 126.02,-52.75 31.15,-35.17 46.72,-82.75 46.72,-142.75"
             style="fill:#231f20;fill-opacity:1;fill-rule:nonzero;stroke:none"
             id="path34" /><path
             d="m 5609.98,1038.05 -69.32,221.7 c -4.35,13.57 -12.52,44.37 -24.47,92.41 l -2.75,0 c -9.2,-40.23 -17.25,-71.25 -24.14,-93.09 l -71.37,-221.02 -66.21,0 -103.09,377.9 59.98,0 c 24.38,-94.94 42.93,-167.23 55.71,-216.88 12.75,-49.65 20.04,-83.1 21.87,-100.33 l 2.77,0 c 2.52,13.1 6.61,30.05 12.23,50.86 5.65,20.8 10.53,37.28 14.67,49.47 l 69.3,216.88 62.07,0 67.57,-216.88 c 12.88,-39.53 21.61,-72.75 26.2,-99.64 l 2.77,0 c 0.9,8.27 3.38,21.03 7.4,38.27 4.03,17.24 27.99,109.99 71.9,278.25 l 59.29,0 -104.47,-377.9 -67.91,0"
             style="fill:#231f20;fill-opacity:1;fill-rule:nonzero;stroke:none"
             id="path36" /><path
             d="m 5850.64,1038.05 57.2305,0 0,536.496 -57.2305,0 0,-536.496 z"
             style="fill:#231f20;fill-opacity:1;fill-rule:nonzero;stroke:none"
             id="path38" /><path
             d="m 6173.36,1374.92 c -30.33,0 -54.53,-9.89 -72.58,-29.66 -18.05,-19.76 -28.67,-47.12 -31.89,-82.06 l 197.57,0 c 0,36.09 -8.04,63.73 -24.14,82.93 -16.09,19.19 -39.08,28.79 -68.96,28.79 z m 15.53,-343.76 c -55.86,0 -99.94,17 -132.23,51.02 -32.3,34.03 -48.46,81.27 -48.46,141.71 0,60.92 15,109.31 45,145.17 30,35.85 70.28,53.78 120.86,53.78 47.35,0 84.81,-15.57 112.4,-46.72 27.58,-31.14 41.37,-72.23 41.37,-123.26 l 0,-36.2 -260.31,0 c 1.15,-44.37 12.34,-78.05 33.61,-101.03 21.25,-22.99 51.21,-34.48 89.83,-34.48 40.68,0 80.9,8.51 120.66,25.52 l 0,-51.03 c -20.21,-8.74 -39.35,-15 -57.4,-18.8 -18.05,-3.79 -39.83,-5.68 -65.33,-5.68"
             style="fill:#231f20;fill-opacity:1;fill-rule:nonzero;stroke:none"
             id="path40" /><path
             d="m 6568.14,1079.09 c 39.09,0 67.43,10.62 85,31.88 17.58,21.26 26.37,55.57 26.37,102.92 l 0,12.07 c 0,53.56 -8.9,91.77 -26.72,114.65 -17.81,22.87 -46.25,34.31 -85.33,34.31 -33.55,0 -59.26,-13.05 -77.07,-39.14 -17.81,-26.08 -26.72,-62.92 -26.72,-110.5 0,-48.27 8.85,-84.71 26.56,-109.31 17.7,-24.59 43.68,-36.88 77.91,-36.88 z m 114.48,9.65 -3.11,0 c -26.42,-38.39 -65.97,-57.58 -118.59,-57.58 -49.44,0 -87.87,16.89 -115.35,50.68 -27.46,33.79 -41.19,81.83 -41.19,144.12 0,62.3 13.78,110.69 41.36,145.16 27.6,34.48 65.98,51.72 115.18,51.72 51.25,0 90.54,-18.61 117.91,-55.85 l 4.49,0 -2.42,27.24 -1.39,26.55 0,153.77 57.25,0 0,-536.5 -46.55,0 -7.59,50.69"
             style="fill:#231f20;fill-opacity:1;fill-rule:nonzero;stroke:none"
             id="path42" /><path
             d="m 6897.09,1294.93 c 0,-26.44 7.46,-46.44 22.4,-60 14.94,-13.57 35.74,-20.34 62.4,-20.34 55.86,0 83.79,27.12 83.79,81.37 0,56.77 -28.26,85.16 -84.82,85.16 -26.9,0 -47.58,-7.24 -62.05,-21.72 -14.49,-14.48 -21.72,-35.97 -21.72,-64.47 z m -31.04,-320.309 c 0,-20.461 8.62,-35.973 25.86,-46.551 17.23,-10.57 41.94,-15.859 74.13,-15.859 48.04,0 83.61,7.187 106.71,21.551 23.11,14.367 34.65,33.847 34.65,58.433 0,20.455 -6.33,34.655 -18.96,42.585 -12.64,7.93 -36.43,11.9 -71.37,11.9 l -68.61,0 c -25.98,0 -46.21,-6.21 -60.69,-18.63 -14.47,-12.41 -21.72,-30.222 -21.72,-53.429 z m 301.35,441.329 0,-36.21 -70,-8.27 c 6.45,-8.04 12.19,-18.56 17.25,-31.55 5.06,-12.99 7.58,-27.64 7.58,-43.96 0,-37.01 -12.64,-66.55 -37.93,-88.61 -25.28,-22.07 -59.98,-33.1 -104.12,-33.1 -11.27,0 -21.84,0.91 -31.72,2.76 -24.38,-12.88 -36.55,-29.08 -36.55,-48.62 0,-10.34 4.24,-17.99 12.76,-22.93 8.49,-4.94 23.1,-7.41 43.79,-7.41 l 66.89,0 c 40.9,0 72.35,-8.62 94.3,-25.87 21.95,-17.23 32.93,-42.28 32.93,-75.16 0,-41.821 -16.78,-73.719 -50.35,-95.668 -33.56,-21.954 -82.52,-32.93 -146.88,-32.93 -49.43,0 -87.52,9.199 -114.3,27.59 -26.77,18.386 -40.17,44.359 -40.17,77.906 0,22.992 7.36,42.882 22.07,59.652 14.71,16.78 35.39,28.16 62.07,34.13 -9.67,4.37 -17.75,11.16 -24.32,20.35 -6.54,9.19 -9.82,19.88 -9.82,32.06 0,13.79 3.67,25.86 11.03,36.21 7.35,10.34 18.97,20.34 34.83,30 -19.55,8.04 -35.47,21.72 -47.76,41.02 -12.3,19.32 -18.45,41.38 -18.45,66.2 0,41.38 12.42,73.27 37.24,95.69 24.83,22.41 60,33.61 105.51,33.61 19.77,0 37.58,-2.29 53.44,-6.89 l 130.68,0"
             style="fill:#231f20;fill-opacity:1;fill-rule:nonzero;stroke:none"
             id="path44" /><path
             d="m 7389.1,1374.92 c -30.33,0 -54.53,-9.89 -72.58,-29.66 -18.04,-19.76 -28.67,-47.12 -31.89,-82.06 l 197.58,0 c 0,36.09 -8.05,63.73 -24.14,82.93 -16.1,19.19 -39.09,28.79 -68.97,28.79 z m 15.53,-343.76 c -55.86,0 -99.94,17 -132.23,51.02 -32.3,34.03 -48.45,81.27 -48.45,141.71 0,60.92 15,109.31 45,145.17 30,35.85 70.27,53.78 120.85,53.78 47.35,0 84.81,-15.57 112.41,-46.72 27.58,-31.14 41.36,-72.23 41.36,-123.26 l 0,-36.2 -260.31,0 c 1.15,-44.37 12.35,-78.05 33.62,-101.03 21.25,-22.99 51.21,-34.48 89.82,-34.48 40.68,0 80.9,8.51 120.66,25.52 l 0,-51.03 c -20.21,-8.74 -39.35,-15 -57.4,-18.8 -18.05,-3.79 -39.82,-5.68 -65.33,-5.68"
             style="fill:#231f20;fill-opacity:1;fill-rule:nonzero;stroke:none"
             id="path46" /><path
             d="m 2079.63,410.379 -58.61,0 0,504.101 281.01,0 0,-52.082 -222.4,0 0,-184.457 208.95,0 0,-52.062 -208.95,0 0,-215.5"
             style="fill:#231f20;fill-opacity:1;fill-rule:nonzero;stroke:none"
             id="path48" /><path
             d="m 2415.11,599.672 c 0,-48.262 9.66,-85.051 28.97,-110.332 19.3,-25.281 47.69,-37.918 85.16,-37.918 37.46,0 65.91,12.578 85.34,37.75 19.42,25.168 29.14,61.996 29.14,110.5 0,48.047 -9.72,84.527 -29.14,109.469 -19.43,24.937 -48.1,37.418 -86.03,37.418 -37.47,0 -65.74,-12.297 -84.81,-36.899 -19.09,-24.601 -28.63,-61.262 -28.63,-109.988 z m 287.9,0 c 0,-61.602 -15.51,-109.703 -46.54,-144.293 -31.04,-34.598 -73.91,-51.891 -128.61,-51.891 -33.79,0 -63.78,7.934 -89.99,23.793 -26.2,15.86 -46.44,38.61 -60.69,68.27 -14.25,29.648 -21.37,64.347 -21.37,104.121 0,61.598 15.4,109.59 46.2,143.957 30.8,34.359 73.55,51.543 128.27,51.543 52.86,0 94.86,-17.582 126.01,-52.762 31.15,-35.16 46.72,-82.738 46.72,-142.738"
             style="fill:#231f20;fill-opacity:1;fill-rule:nonzero;stroke:none"
             id="path50" /><path
             d="m 2857.14,788.27 0,-245.141 c 0,-30.801 7.02,-53.789 21.04,-68.957 14.01,-15.172 35.97,-22.75 65.85,-22.75 39.53,0 68.45,10.797 86.72,32.398 18.27,21.61 27.41,56.899 27.41,105.86 l 0,198.59 57.24,0 0,-377.891 -47.24,0 -8.28,50.691 -3.1,0 c -11.73,-18.621 -27.99,-32.871 -48.79,-42.761 -20.81,-9.879 -44.54,-14.821 -71.2,-14.821 -45.97,0 -80.4,10.922 -103.27,32.75 -22.87,21.84 -34.31,56.782 -34.31,104.821 l 0,247.211 57.93,0"
             style="fill:#231f20;fill-opacity:1;fill-rule:nonzero;stroke:none"
             id="path52" /><path
             d="m 3495.36,410.379 0,244.473 c 0,30.789 -7.02,53.777 -21.04,68.949 -14.02,15.168 -35.98,22.758 -65.85,22.758 -39.54,0 -68.5,-10.688 -86.89,-32.071 C 3303.19,693.121 3294,657.82 3294,608.641 l 0,-198.262 -57.24,0 0,377.891 46.55,0 9.31,-51.711 2.76,0 c 11.72,18.621 28.15,33.043 49.3,43.269 21.15,10.223 44.71,15.344 70.69,15.344 45.5,0 79.75,-10.981 102.74,-32.922 22.99,-21.949 34.48,-57.07 34.48,-105.34 l 0,-246.531 -57.23,0"
             style="fill:#231f20;fill-opacity:1;fill-rule:nonzero;stroke:none"
             id="path54" /><path
             d="m 3812.91,451.422 c 39.06,0 67.4,10.617 84.98,31.879 17.6,21.258 26.39,55.57 26.39,102.918 l 0,12.07 c 0,53.563 -8.91,91.77 -26.72,114.652 -17.81,22.868 -46.27,34.309 -85.35,34.309 -33.56,0 -59.25,-13.051 -77.06,-39.141 -17.81,-26.089 -26.72,-62.918 -26.72,-110.5 0,-48.269 8.85,-84.711 26.56,-109.308 17.69,-24.602 43.66,-36.879 77.92,-36.879 z m 114.47,9.648 -3.1,0 c -26.45,-38.39 -65.98,-57.582 -118.62,-57.582 -49.41,0 -87.86,16.891 -115.33,50.684 -27.47,33.789 -41.2,81.828 -41.2,144.117 0,62.301 13.79,110.691 41.37,145.16 27.59,34.481 65.97,51.723 115.16,51.723 51.25,0 90.57,-18.613 117.93,-55.852 l 4.48,0 -2.43,27.239 -1.36,26.55 0,153.77 57.22,0 0,-536.5 -46.54,0 -7.58,50.691"
             style="fill:#231f20;fill-opacity:1;fill-rule:nonzero;stroke:none"
             id="path56" /><path
             d="m 4205.98,450.73 c 35.62,0 63.61,9.758 83.94,29.301 20.35,19.528 30.53,46.899 30.53,82.059 l 0,34.129 -57.25,-2.41 c -45.5,-1.61 -78.32,-8.668 -98.43,-21.2 -20.12,-12.531 -30.18,-32.007 -30.18,-58.449 0,-20.68 6.27,-36.43 18.79,-47.23 12.54,-10.801 30.06,-16.2 52.6,-16.2 z m 129.29,-40.351 -11.38,53.793 -2.76,0 c -18.84,-23.684 -37.63,-39.703 -56.36,-48.094 -18.75,-8.387 -42.13,-12.59 -70.18,-12.59 -37.46,0 -66.84,9.653 -88.09,28.961 -21.27,19.313 -31.89,46.77 -31.89,82.41 0,76.301 61.02,116.301 183.09,119.993 l 64.12,2.07 0,23.43 c 0,29.66 -6.37,51.558 -19.14,65.687 -12.76,14.141 -33.15,21.211 -61.2,21.211 -31.5,0 -67.12,-9.66 -106.89,-28.969 l -17.58,43.789 c 18.62,10.11 39.03,18.051 61.21,23.789 22.17,5.743 44.42,8.629 66.7,8.629 45.06,0 78.46,-10 100.18,-30 21.72,-20 32.58,-52.066 32.58,-96.199 l 0,-257.91 -42.41,0"
             style="fill:#231f20;fill-opacity:1;fill-rule:nonzero;stroke:none"
             id="path58" /><path
             d="m 4617.66,450.73 c 10.11,0 19.88,0.739 29.31,2.231 9.42,1.5 16.9,3.051 22.41,4.66 l 0,-43.793 c -6.22,-2.988 -15.34,-5.457 -27.41,-7.406 -12.07,-1.953 -22.93,-2.934 -32.59,-2.934 -73.09,0 -109.63,38.5 -109.63,115.512 l 0,224.801 -54.14,0 0,27.578 54.14,23.793 24.12,80.68 33.1,0 0,-87.582 109.65,0 0,-44.469 -109.65,0 0,-222.391 c 0,-22.762 5.39,-40.242 16.21,-52.41 10.8,-12.191 25.63,-18.27 44.48,-18.27"
             style="fill:#231f20;fill-opacity:1;fill-rule:nonzero;stroke:none"
             id="path60" /><path
             d="m 4802.13,410.379 -57.25,0 0,377.891 57.25,0 0,-377.891 z m -62.07,480.301 c 0,13.101 3.22,22.699 9.65,28.8 6.44,6.079 14.49,9.129 24.14,9.129 9.2,0 17.13,-3.109 23.79,-9.308 6.66,-6.211 10,-15.75 10,-28.621 0,-12.871 -3.34,-22.469 -10,-28.789 -6.66,-6.321 -14.59,-9.493 -23.79,-9.493 -9.65,0 -17.7,3.172 -24.14,9.493 -6.43,6.32 -9.65,15.918 -9.65,28.789"
             style="fill:#231f20;fill-opacity:1;fill-rule:nonzero;stroke:none"
             id="path62" /><path
             d="m 4961.76,599.672 c 0,-48.262 9.67,-85.051 28.96,-110.332 19.32,-25.281 47.7,-37.918 85.18,-37.918 37.46,0 65.9,12.578 85.33,37.75 19.41,25.168 29.14,61.996 29.14,110.5 0,48.047 -9.73,84.527 -29.14,109.469 -19.43,24.937 -48.1,37.418 -86.03,37.418 -37.47,0 -65.75,-12.297 -84.81,-36.899 -19.08,-24.601 -28.63,-61.262 -28.63,-109.988 z m 287.91,0 c 0,-61.602 -15.53,-109.703 -46.54,-144.293 -31.04,-34.598 -73.91,-51.891 -128.62,-51.891 -33.79,0 -63.79,7.934 -90,23.793 -26.19,15.86 -46.42,38.61 -60.68,68.27 -14.24,29.648 -21.37,64.347 -21.37,104.121 0,61.598 15.39,109.59 46.19,143.957 30.8,34.359 73.56,51.543 128.28,51.543 52.86,0 94.87,-17.582 126.02,-52.762 31.13,-35.16 46.72,-82.738 46.72,-142.738"
             style="fill:#231f20;fill-opacity:1;fill-rule:nonzero;stroke:none"
             id="path64" /><path
             d="m 5608.59,410.379 0,244.473 c 0,30.789 -7.01,53.777 -21.03,68.949 -14.02,15.168 -35.98,22.758 -65.86,22.758 -39.53,0 -68.5,-10.688 -86.9,-32.071 -18.37,-21.367 -27.57,-56.668 -27.57,-105.847 l 0,-198.262 -57.23,0 0,377.891 46.54,0 9.32,-51.711 2.75,0 c 11.72,18.621 28.15,33.043 49.3,43.269 21.15,10.223 44.71,15.344 70.68,15.344 45.51,0 79.77,-10.981 102.76,-32.922 22.99,-21.949 34.47,-57.07 34.47,-105.34 l 0,-246.531 -57.23,0"
             style="fill:#231f20;fill-opacity:1;fill-rule:nonzero;stroke:none"
             id="path66" /><path
             d="m 897.449,1962.21 c -588.621,0 -881.617,-463.06 -881.617,-973.183 0,-510.148 292.996,-973.2067 881.617,-973.2067 586.011,0 879.011,463.0587 879.011,973.2067 0,510.123 -293,973.183 -879.011,973.183"
             style="fill:#ffffff;fill-opacity:1;fill-rule:nonzero;stroke:none"
             id="path68" /><path
             d="m 897.449,1946.38 c -598.086,0 -865.7967,-480.83 -865.7967,-957.353 0,-476.539 267.7107,-957.3864 865.7967,-957.3864 596.291,0 863.191,480.8474 863.191,957.3864 0,476.523 -266.9,957.353 -863.191,957.353 l 0,0 z M 897.449,0 C 617.754,0 384.758,104.121 223.652,301.109 79.4336,477.449 0,721.762 0,989.027 c 0,267.253 79.4336,511.563 223.652,687.903 161.106,196.98 394.102,301.1 673.797,301.1 278.571,0 510.771,-104.12 671.521,-301.11 144.01,-176.47 223.32,-420.78 223.32,-687.893 0,-267.136 -79.31,-511.437 -223.32,-687.906 C 1408.22,104.121 1176.02,0 897.449,0 l 0,0"
             style="fill:#7b7979;fill-opacity:1;fill-rule:nonzero;stroke:none"
             id="path70" /><path
             d="m 1537.1,1354.62 -6.08,0.02 -493.67,0 0,-299.63 432.95,0 0,-105.6 -432.95,0 0,-431.621 -125.385,0 0,942.451 578.425,0 c -108.08,204.18 -300.6,350.23 -592.941,350.23 -301.734,0 -497.273,-153.95 -603.863,-366.69 l 461.094,-453.444 0,469.904 125.386,0 0,-942.451 -125.386,0 0,329.981 -157.075,146.519 -313.992,-439.34 c 104.129,-223.379 302.403,-387.39 613.836,-387.39 491.841,0 701.121,413.339 701.121,821.468 0,125.433 -19.81,251.323 -61.47,365.593"
             style="fill:#3aa08c;fill-opacity:1;fill-rule:nonzero;stroke:none"
             id="path72" /><path
             d="m 247.629,1332.85 c -36.524,-108.39 -53.906,-226.31 -53.906,-343.823 0,-98.515 12.234,-197.316 37.683,-290.558 l 280.391,381.621 -264.168,252.76"
             style="fill:#3aa08c;fill-opacity:1;fill-rule:nonzero;stroke:none"
             id="path74" /></g></g></g></g></svg>