<?xml version="1.0" encoding="UTF-8" standalone="no"?>
<!-- Created with Inkscape (http://www.inkscape.org/) -->

<svg
   xmlns:dc="http://purl.org/dc/elements/1.1/"
   xmlns:cc="http://creativecommons.org/ns#"
   xmlns:rdf="http://www.w3.org/1999/02/22-rdf-syntax-ns#"
   xmlns:svg="http://www.w3.org/2000/svg"
   xmlns="http://www.w3.org/2000/svg"
   xmlns:sodipodi="http://sodipodi.sourceforge.net/DTD/sodipodi-0.dtd"
   xmlns:inkscape="http://www.inkscape.org/namespaces/inkscape"
   id="svg2"
   version="1.1"
   inkscape:version="0.48.2 r9819"
   width="1133.75"
   height="236.25"
   xml:space="preserve"
   sodipodi:docname="open-news-final.pdf"><metadata
     id="metadata8"><rdf:RDF><cc:Work
         rdf:about=""><dc:format>image/svg+xml</dc:format><dc:type
           rdf:resource="http://purl.org/dc/dcmitype/StillImage" /><dc:title></dc:title></cc:Work></rdf:RDF></metadata><defs
     id="defs6" /><sodipodi:namedview
     pagecolor="#ffffff"
     bordercolor="#666666"
     borderopacity="1"
     objecttolerance="10"
     gridtolerance="10"
     guidetolerance="10"
     inkscape:pageopacity="0"
     inkscape:pageshadow="2"
     inkscape:window-width="640"
     inkscape:window-height="480"
     id="namedview4"
     showgrid="false"
     inkscape:zoom="0.35281147"
     inkscape:cx="566.875"
     inkscape:cy="118.125"
     inkscape:window-x="106"
     inkscape:window-y="3"
     inkscape:window-maximized="0"
     inkscape:current-layer="g10" /><g
     id="g10"
     inkscape:groupmode="layer"
     inkscape:label="open-news-final"
     transform="matrix(1.25,0,0,-1.25,0,236.25)"><g
       id="g12"><path
         d="m 242.168,150.406 0,-24.176 -9.656,0 0,46.29 9.656,0 0,-21.114 13.187,21.114 11.454,0 -14.786,-21.446 16.45,-24.844 -12.254,0 -14.051,24.176"
         style="fill:#7b7979;fill-opacity:1;fill-rule:nonzero;stroke:none"
         id="path14" /><path
         d="m 289.719,148.301 c 0,1.945 -0.211,3.258 -0.633,3.941 -0.422,0.688 -1.211,1.028 -2.363,1.028 -0.891,0 -1.887,-0.278 -2.996,-0.829 -1.114,-0.55 -2.176,-1.293 -3.2,-2.218 l 0,-23.993 -8.922,0 0,24.708 c 0,2.976 -0.402,5.64 -1.199,7.996 l 7.891,2.261 c 0.84,-1.422 1.262,-2.84 1.262,-4.261 0.66,0.488 1.289,0.933 1.886,1.332 0.598,0.398 1.27,0.8 2.02,1.199 0.887,0.488 1.867,0.855 2.949,1.097 1.082,0.247 2.133,0.368 3.148,0.368 1.903,0 3.602,-0.457 5.102,-1.368 1.504,-0.91 2.52,-2.097 3.051,-3.562 0.441,-1.152 0.66,-2.773 0.66,-4.859 l 0,-24.911 -8.656,0 0,22.071"
         style="fill:#7b7979;fill-opacity:1;fill-rule:nonzero;stroke:none"
         id="path16" /><path
         d="m 305.836,159.73 8.992,1.399 0,-34.899 -8.992,0 0,33.5 z m 8.391,6.059 c -1.067,-1.062 -2.375,-1.598 -3.93,-1.598 -1.508,0 -2.797,0.536 -3.863,1.598 -1.067,1.066 -1.598,2.375 -1.598,3.934 0,1.55 0.543,2.863 1.633,3.925 1.086,1.067 2.406,1.598 3.961,1.598 1.511,0 2.789,-0.531 3.832,-1.598 1.043,-1.062 1.562,-2.375 1.562,-3.925 0,-1.559 -0.531,-2.868 -1.597,-3.934"
         style="fill:#7b7979;fill-opacity:1;fill-rule:nonzero;stroke:none"
         id="path18" /><path
         d="m 338.902,152.953 c -0.957,0.879 -2.277,1.317 -3.964,1.317 -1.688,0 -2.997,-0.438 -3.926,-1.317 -0.934,-0.875 -1.403,-2.101 -1.403,-3.68 0,-1.707 0.493,-2.933 1.469,-3.675 0.977,-0.746 2.238,-1.118 3.793,-1.118 3.641,0 5.461,1.598 5.461,4.793 0,1.579 -0.477,2.805 -1.43,3.68 z m 14.418,1.715 c -0.976,-0.398 -2.086,-0.598 -3.328,-0.598 -0.449,0 -0.879,0.024 -1.304,0.067 -0.422,0.043 -0.77,0.09 -1.04,0.133 0.672,-0.801 1.172,-1.645 1.508,-2.532 0.332,-0.886 0.5,-1.91 0.5,-3.062 0,-1.465 -0.312,-2.821 -0.937,-4.063 -0.625,-1.246 -1.512,-2.308 -2.653,-3.199 -1.14,-0.887 -2.484,-1.586 -4.027,-2.098 -1.543,-0.507 -3.23,-0.765 -5.062,-0.765 l -0.942,0 c -0.09,0 -0.223,0.023 -0.402,0.066 -1.164,-0.531 -2.051,-1.008 -2.653,-1.429 -0.605,-0.422 -0.906,-0.879 -0.906,-1.368 0,-0.531 0.488,-0.797 1.461,-0.797 l 4.777,-0.07 c 2.567,-0.043 4.626,-0.289 6.176,-0.73 1.547,-0.446 2.918,-1.223 4.114,-2.332 1.945,-1.821 2.921,-4.239 2.921,-7.258 0,-2.754 -0.91,-5.106 -2.726,-7.059 -1.508,-1.597 -3.457,-2.73 -5.848,-3.398 -2.394,-0.664 -4.918,-1 -7.578,-1 -2.437,0 -4.805,0.258 -7.109,0.765 -2.305,0.512 -4.235,1.481 -5.782,2.899 -1.863,1.73 -2.792,3.754 -2.792,6.062 0,0.93 0.089,1.653 0.265,2.164 0.176,0.508 0.356,0.942 0.535,1.297 l 8.258,0 c -0.18,-0.406 -0.289,-0.758 -0.332,-1.054 -0.047,-0.293 -0.066,-0.688 -0.066,-1.188 0,-2.855 2.129,-4.285 6.39,-4.285 1.157,0 2.2,0.078 3.133,0.238 0.93,0.16 1.75,0.461 2.461,0.914 0.668,0.407 1.199,0.91 1.602,1.52 0.398,0.609 0.597,1.273 0.597,1.996 0,1.578 -0.597,2.648 -1.797,3.211 -1.199,0.562 -2.687,0.867 -4.464,0.914 l -3.793,0.066 c -3.997,0.09 -6.731,0.446 -8.196,1.067 -0.797,0.308 -1.429,0.84 -1.894,1.597 -0.469,0.754 -0.699,1.707 -0.699,2.864 0,0.535 0.062,1.066 0.199,1.597 0.133,0.535 0.41,1.043 0.832,1.532 0.422,0.488 1.043,0.957 1.863,1.402 0.82,0.441 1.941,0.84 3.363,1.195 -4.883,1.289 -7.324,4.442 -7.324,9.457 0,1.735 0.344,3.309 1.035,4.731 0.692,1.422 1.664,2.629 2.91,3.629 1.25,1 2.766,1.773 4.551,2.332 1.785,0.554 3.77,0.832 5.957,0.832 0.981,0 1.938,-0.067 2.875,-0.2 0.938,-0.132 2.031,-0.355 3.278,-0.668 0.937,-0.222 1.726,-0.398 2.375,-0.531 0.648,-0.133 1.261,-0.199 1.839,-0.199 1.25,0 2.489,0.254 3.711,0.766 1.223,0.507 2.348,1.23 3.371,2.164 l 3.727,-5.66 c -0.977,-0.891 -1.953,-1.532 -2.93,-1.934"
         style="fill:#7b7979;fill-opacity:1;fill-rule:nonzero;stroke:none"
         id="path20" /><path
         d="m 378.762,149.25 c 0,1.695 -0.258,2.902 -0.774,3.617 -0.511,0.711 -1.418,1.071 -2.711,1.071 -1.117,0 -2.324,-0.301 -3.621,-0.907 -1.297,-0.601 -2.457,-1.347 -3.484,-2.242 l 0,-24.559 -8.992,0 0,39.426 c 0,1.602 -0.055,3.121 -0.164,4.563 -0.114,1.445 -0.278,2.519 -0.5,3.23 l 9.062,2.133 c 0.219,-0.934 0.375,-2.144 0.461,-3.629 0.086,-1.488 0.133,-3.055 0.133,-4.695 l 0,-6.793 c 0,-0.535 -0.024,-1.09 -0.067,-1.668 -0.046,-0.574 -0.066,-0.977 -0.066,-1.195 1.156,1.109 2.625,1.996 4.41,2.664 1.781,0.664 3.543,0.996 5.281,0.996 2.184,0 4.075,-0.434 5.68,-1.297 1.602,-0.867 2.672,-2.055 3.207,-3.563 0.176,-0.492 0.324,-0.945 0.434,-1.367 0.113,-0.422 0.199,-0.867 0.265,-1.332 0.071,-0.465 0.114,-0.988 0.137,-1.566 0.024,-0.575 0.031,-1.266 0.031,-2.063 l 0,-23.844 -8.722,0 0,23.02"
         style="fill:#7b7979;fill-opacity:1;fill-rule:nonzero;stroke:none"
         id="path22" /><path
         d="m 405.133,125.434 c -2.289,0 -4.278,0.453 -5.969,1.355 -1.687,0.906 -2.805,2.113 -3.344,3.613 -0.136,0.356 -0.25,0.676 -0.34,0.961 -0.089,0.289 -0.148,0.621 -0.168,0.996 -0.023,0.375 -0.046,0.817 -0.07,1.325 -0.019,0.507 -0.031,1.16 -0.031,1.957 l 0,18.429 -3.399,0 0,6.125 3.399,0 c 0,1.688 0.012,3.133 0.031,4.332 0.024,1.2 0.125,2.442 0.305,3.727 l 9.187,2.266 c -0.175,-1.555 -0.312,-3.231 -0.398,-5.028 -0.09,-1.801 -0.133,-3.562 -0.133,-5.297 l 7.992,0 -2.265,-6.125 -5.727,0 0,-16.914 c 0,-1.054 0.055,-1.933 0.164,-2.633 0.11,-0.703 0.313,-1.261 0.602,-1.679 0.285,-0.414 0.676,-0.703 1.164,-0.856 0.488,-0.152 1.133,-0.23 1.929,-0.23 0.403,0 0.836,0.054 1.301,0.168 0.465,0.109 1.098,0.277 1.899,0.5 l 1.133,-5.43 c -2.532,-1.043 -4.954,-1.562 -7.262,-1.562"
         style="fill:#7b7979;fill-opacity:1;fill-rule:nonzero;stroke:none"
         id="path24" /><path
         d="m 412.594,148.273 15.984,0 0,-7.656 -15.984,0 0,7.656 z"
         style="fill:#7b7979;fill-opacity:1;fill-rule:nonzero;stroke:none"
         id="path26" /><path
         d="m 469.668,150.938 c -0.09,1.468 -0.168,2.808 -0.234,4.031 -0.067,1.219 -0.098,2.453 -0.098,3.695 -0.266,-1.332 -0.524,-2.496 -0.766,-3.496 -0.246,-1 -0.566,-2.207 -0.965,-3.629 l -7.328,-25.309 -7.992,0 -6.594,24.309 c -0.312,1.156 -0.644,2.465 -0.996,3.93 -0.359,1.465 -0.648,2.84 -0.867,4.129 0,-1.332 -0.047,-2.664 -0.133,-3.996 -0.047,-1.375 -0.113,-2.774 -0.199,-4.196 l -1.601,-24.176 -9.254,0 4.328,46.29 11.922,0 6.086,-23.18 c 0.222,-0.844 0.414,-1.586 0.57,-2.231 0.156,-0.644 0.301,-1.242 0.433,-1.797 0.133,-0.554 0.247,-1.097 0.336,-1.632 0.09,-0.532 0.176,-1.086 0.266,-1.664 0.227,1.152 0.469,2.351 0.734,3.593 0.27,1.246 0.582,2.555 0.938,3.93 l 6.285,22.981 11.856,0 4.128,-46.29 -9.125,0 -1.73,24.708"
         style="fill:#7b7979;fill-opacity:1;fill-rule:nonzero;stroke:none"
         id="path28" /><path
         d="m 504.102,152.543 c -0.934,1.195 -2.223,1.793 -3.864,1.793 -1.066,0 -2.011,-0.309 -2.832,-0.93 -0.824,-0.621 -1.41,-1.461 -1.765,-2.523 -0.313,-0.887 -0.543,-1.949 -0.7,-3.188 -0.156,-1.242 -0.234,-2.699 -0.234,-4.383 0,-3.851 0.379,-6.707 1.137,-8.566 0.398,-0.93 1.031,-1.625 1.894,-2.09 0.867,-0.465 1.742,-0.699 2.633,-0.699 1.996,0 3.418,0.91 4.262,2.723 0.844,1.816 1.265,4.734 1.265,8.765 0,4.516 -0.601,7.547 -1.796,9.098 z m 10.421,-16.656 c -0.687,-2.086 -1.761,-3.973 -3.222,-5.66 -1.285,-1.465 -2.813,-2.622 -4.586,-3.461 -1.77,-0.844 -3.988,-1.27 -6.645,-1.27 -2.304,0 -4.398,0.426 -6.281,1.27 -1.883,0.839 -3.488,2.031 -4.816,3.562 -1.332,1.531 -2.36,3.383 -3.09,5.559 -0.731,2.175 -1.098,4.597 -1.098,7.261 0,2.664 0.367,5.094 1.098,7.293 0.73,2.196 1.758,4.082 3.09,5.661 1.328,1.574 2.933,2.785 4.816,3.628 1.883,0.844 3.977,1.266 6.281,1.266 4.828,0 8.684,-1.711 11.563,-5.129 1.375,-1.597 2.371,-3.375 2.992,-5.328 0.621,-1.953 0.93,-4.328 0.93,-7.125 0,-2.93 -0.344,-5.437 -1.032,-7.527"
         style="fill:#7b7979;fill-opacity:1;fill-rule:nonzero;stroke:none"
         id="path30" /><path
         d="m 517.887,126.23 0,5.489 16.051,22.152 -14.719,0 0,6.324 25.308,0 0,-6.066 -15.054,-21.57 15.652,0 -2.133,-6.329 -25.105,0"
         style="fill:#7b7979;fill-opacity:1;fill-rule:nonzero;stroke:none"
         id="path32" /><path
         d="m 549.719,159.73 8.992,1.399 0,-34.899 -8.992,0 0,33.5 z m 8.394,6.059 c -1.066,-1.062 -2.379,-1.598 -3.929,-1.598 -1.512,0 -2.797,0.536 -3.864,1.598 -1.066,1.066 -1.597,2.375 -1.597,3.934 0,1.55 0.543,2.863 1.629,3.925 1.089,1.067 2.41,1.598 3.964,1.598 1.508,0 2.786,-0.531 3.829,-1.598 1.043,-1.062 1.566,-2.375 1.566,-3.925 0,-1.559 -0.535,-2.868 -1.598,-3.934"
         style="fill:#7b7979;fill-opacity:1;fill-rule:nonzero;stroke:none"
         id="path34" /><path
         d="m 574.766,125.434 c -1.879,0 -3.52,0.421 -4.922,1.261 -1.399,0.844 -2.364,1.977 -2.887,3.399 -0.176,0.441 -0.309,0.867 -0.395,1.265 -0.085,0.399 -0.164,0.868 -0.23,1.399 -0.066,0.531 -0.109,1.199 -0.129,2 -0.023,0.797 -0.035,1.797 -0.035,2.996 l 0,25.441 c 0,2.262 -0.031,4.149 -0.098,5.66 -0.066,1.508 -0.191,3.04 -0.367,4.594 l 8.996,2.067 c 0.176,-0.934 0.297,-2.043 0.363,-3.332 0.063,-1.289 0.098,-3.129 0.098,-5.528 l 0,-26.57 c 0,-1.469 0.012,-2.645 0.035,-3.531 0.02,-0.891 0.043,-1.602 0.067,-2.133 0.019,-0.531 0.074,-0.934 0.164,-1.199 0.09,-0.266 0.199,-0.508 0.336,-0.731 0.351,-0.625 0.953,-0.933 1.797,-0.933 l 0.464,0 c 0.09,0 0.266,0.043 0.536,0.132 l 1.531,-5.328 c -1.645,-0.621 -3.418,-0.929 -5.324,-0.929"
         style="fill:#7b7979;fill-opacity:1;fill-rule:nonzero;stroke:none"
         id="path36" /><path
         d="m 591.883,125.434 c -1.883,0 -3.524,0.421 -4.922,1.261 -1.402,0.844 -2.363,1.977 -2.887,3.399 -0.176,0.441 -0.308,0.867 -0.394,1.265 -0.09,0.399 -0.164,0.868 -0.231,1.399 -0.066,0.531 -0.109,1.199 -0.133,2 -0.023,0.797 -0.031,1.797 -0.031,2.996 l 0,25.441 c 0,2.262 -0.035,4.149 -0.101,5.66 -0.067,1.508 -0.188,3.04 -0.364,4.594 l 8.996,2.067 c 0.176,-0.934 0.297,-2.043 0.36,-3.332 0.066,-1.289 0.101,-3.129 0.101,-5.528 l 0,-26.57 c 0,-1.469 0.008,-2.645 0.032,-3.531 0.023,-0.891 0.043,-1.602 0.066,-2.133 0.023,-0.531 0.078,-0.934 0.168,-1.199 0.086,-0.266 0.199,-0.508 0.332,-0.731 0.355,-0.625 0.953,-0.933 1.797,-0.933 l 0.469,0 c 0.086,0 0.265,0.043 0.531,0.132 l 1.531,-5.328 c -1.641,-0.621 -3.418,-0.929 -5.32,-0.929"
         style="fill:#7b7979;fill-opacity:1;fill-rule:nonzero;stroke:none"
         id="path38" /><path
         d="m 610.527,140.098 c -1.203,-0.7 -1.8,-2.059 -1.8,-4.071 0,-1.316 0.359,-2.379 1.082,-3.187 0.718,-0.809 1.648,-1.215 2.785,-1.215 1.75,0 3.277,0.766 4.59,2.301 l 0.132,7.222 -0.394,0 c -3.059,0 -5.192,-0.347 -6.395,-1.05 z m 11.039,-13.868 c -0.859,0.711 -1.511,1.508 -1.953,2.399 -0.355,-0.356 -0.699,-0.691 -1.027,-1 -0.332,-0.313 -0.676,-0.578 -1.027,-0.801 -1.68,-1.238 -3.954,-1.863 -6.829,-1.863 -3.843,0 -6.746,0.918 -8.71,2.746 -1.969,1.832 -2.95,4.488 -2.95,7.973 0,4.066 1.352,7.046 4.059,8.945 2.711,1.898 6.816,2.848 12.324,2.848 l 0.996,0 c 0.446,0 0.778,-0.024 1,-0.067 l 0,1.371 c 0,1.867 -0.254,3.16 -0.765,3.879 -0.512,0.719 -1.586,1.078 -3.231,1.078 -1.422,0 -2.953,-0.336 -4.594,-1 -1.644,-0.668 -3.398,-1.621 -5.261,-2.863 l -3.797,6.391 c 0.887,0.578 1.73,1.066 2.531,1.468 0.797,0.399 1.797,0.84 2.996,1.332 1.688,0.707 3.274,1.219 4.762,1.532 1.488,0.308 3.008,0.464 4.562,0.464 2.914,0 5.289,-0.511 7.125,-1.531 1.836,-1.023 3.086,-2.488 3.743,-4.394 0.218,-0.492 0.371,-1.012 0.457,-1.567 0.085,-0.554 0.132,-1.3 0.132,-2.23 l 0,-2.332 -0.199,-11.453 c 0,-0.934 0.02,-1.746 0.067,-2.434 0.043,-0.687 0.175,-1.32 0.398,-1.898 0.223,-0.578 0.543,-1.121 0.965,-1.629 0.422,-0.512 1.012,-1.059 1.765,-1.633 l -4.722,-5.461 c -1.016,0.445 -1.953,1.02 -2.817,1.73"
         style="fill:#7b7979;fill-opacity:1;fill-rule:nonzero;stroke:none"
         id="path40" /><path
         d="M 246.176,40.465 C 251.973,34.43 259.898,31 267.707,31 c 17.395,0 30.527,13.961 30.527,32.301 0,7.691 -2.839,14.906 -8.281,20.82 -6.273,6.746 -13.254,10.059 -22.246,10.059 -7.926,0 -15.262,-3.075 -20.82,-8.754 -5.918,-6.035 -9.352,-14.317 -9.352,-22.364 0,-8.874 3.195,-16.917 8.641,-22.597 z m -8.047,53.715 c 8.047,7.925 17.984,12.187 29.578,12.187 11.832,0 22.008,-4.14 30.289,-12.305 8.52,-8.402 12.899,-18.929 12.899,-30.882 0,-12.067 -3.786,-22.125 -11.122,-30.051 -8.636,-9.348 -19.406,-14.199 -32.066,-14.199 -12.539,0 -23.309,4.851 -31.828,14.437 -7.098,7.926 -10.883,18.219 -10.883,29.813 0,11.715 4.496,22.48 13.133,31"
         style="fill:#231f20;fill-opacity:1;fill-rule:nonzero;stroke:none"
         id="path42" /><path
         d="m 358.336,30.289 c 11.828,0 21.652,9.703 21.652,22.242 0,12.543 -9.824,22.364 -21.652,22.364 -12.66,0 -21.535,-9.465 -21.535,-22.364 0,-12.894 8.875,-22.242 21.535,-22.242 z m -32.774,43.422 -8.874,0 0,10.887 20.23,0 0,-8.164 c 5.68,6.386 12.898,9.464 22.008,9.464 8.992,0 16.801,-3.312 23.191,-9.582 6.387,-6.39 9.821,-14.671 9.821,-23.785 0,-9.109 -3.434,-17.39 -9.821,-23.781 -6.39,-6.27 -14.199,-9.582 -23.191,-9.582 -9.348,0 -16.328,2.957 -21.887,9.348 l 0,-17.512 9.582,0 0,-11.004 -30.289,0 0,11.004 9.23,0 0,62.707"
         style="fill:#231f20;fill-opacity:1;fill-rule:nonzero;stroke:none"
         id="path44" /><path
         d="m 452.156,58.805 c -2.957,10.054 -11.004,16.09 -20.703,16.09 -9.703,0 -17.512,-5.915 -20.824,-16.09 l 41.527,0 z M 431.453,18.93 c -8.996,0 -17.394,3.433 -23.785,9.82 -6.387,6.391 -9.938,14.789 -9.938,23.781 0,8.992 3.551,17.395 9.938,23.785 6.391,6.387 14.789,9.821 23.785,9.821 11.356,0 21.649,-5.446 27.922,-14.91 3.785,-5.68 5.559,-11.832 5.559,-18.575 0,-1.539 -0.118,-3.078 -0.235,-4.617 l -54.543,0 c 2.602,-11 11.239,-17.746 21.297,-17.746 7.453,0 13.84,3.668 18.457,10.649 l 13.133,0 C 457.602,27.094 445.531,18.93 431.453,18.93"
         style="fill:#231f20;fill-opacity:1;fill-rule:nonzero;stroke:none"
         id="path46" /><path
         d="m 478.301,73.711 -8.992,0 0,10.887 19.996,0 0,-9.231 c 4.14,6.981 10.414,10.293 18.929,10.293 7.102,0 13.371,-2.601 17.633,-6.859 6.27,-6.274 7.453,-12.426 7.453,-21.891 l 0,-25.32 9.11,0 0,-11.004 -29.344,0 0,11.004 8.758,0 0,22.008 c 0,14.433 -3.434,21.058 -15.5,21.058 -10.532,0 -16.567,-7.332 -16.567,-21.297 l 0,-21.769 8.758,0 0,-11.004 -29.461,0 0,11.004 9.227,0 0,42.121"
         style="fill:#231f20;fill-opacity:1;fill-rule:nonzero;stroke:none"
         id="path48" /><path
         d="m 582.301,31.828 0,-11.242 -31.828,0 0,11.242 9.82,0 0,61.879 -9.82,0 0,11.004 22.242,0 41.058,-63.301 0,52.297 -9.941,0 0,11.004 31.828,0 0,-11.004 -9.82,0 0,-73.121 -11.949,0 -41.532,65.312 0,-54.07 9.942,0"
         style="fill:#231f20;fill-opacity:1;fill-rule:nonzero;stroke:none"
         id="path50" /><path
         d="m 688.07,58.805 c -2.957,10.054 -11.004,16.09 -20.703,16.09 -9.703,0 -17.512,-5.915 -20.824,-16.09 l 41.527,0 z M 667.367,18.93 c -8.996,0 -17.394,3.433 -23.785,9.82 -6.387,6.391 -9.937,14.789 -9.937,23.781 0,8.992 3.55,17.395 9.937,23.785 6.391,6.387 14.789,9.821 23.785,9.821 11.356,0 21.653,-5.446 27.922,-14.91 3.785,-5.68 5.559,-11.832 5.559,-18.575 0,-1.539 -0.118,-3.078 -0.235,-4.617 l -54.543,0 c 2.602,-11 11.239,-17.746 21.297,-17.746 7.453,0 13.84,3.668 18.457,10.649 l 13.133,0 C 693.516,27.094 681.445,18.93 667.367,18.93"
         style="fill:#231f20;fill-opacity:1;fill-rule:nonzero;stroke:none"
         id="path52" /><path
         d="m 709.246,73.711 -7.57,0 0,10.887 28.988,0 0,-10.887 -9.703,0 11.832,-35.496 15.496,46.383 6.863,0 15.5,-46.383 11.832,35.496 -9.699,0 0,10.887 28.985,0 0,-10.887 -7.571,0 -18.457,-53.125 -9.465,0 -14.554,41.41 -14.555,-41.41 -9.344,0 -18.578,53.125"
         style="fill:#231f20;fill-opacity:1;fill-rule:nonzero;stroke:none"
         id="path54" /><path
         d="m 817.977,41.293 0,-0.238 c 0,-6.743 4.613,-11.356 10.886,-11.356 6.625,0 10.649,3.313 10.649,8.516 0,5.68 -3.078,7.691 -10.176,9.703 -7.219,2.129 -12.305,3.312 -14.91,4.969 -5.559,3.551 -8.164,8.164 -8.164,14.554 0,10.766 7.929,18.575 19.168,18.575 4.851,0 8.992,-1.657 12.425,-4.969 l 0,3.551 9.817,0 0,-16.567 -11.121,0 c -0.707,5.086 -4.258,8.164 -9.699,8.164 -5.563,0 -9.114,-3.547 -9.114,-7.808 0,-6.981 6.508,-6.981 17.395,-10.532 11.238,-3.667 16.211,-8.636 16.211,-18.929 0,-11.477 -8.403,-19.758 -20.707,-19.758 -5.914,0 -10.41,1.656 -14.199,5.559 l 0,-4.141 -10.649,0 0,20.707 12.188,0"
         style="fill:#231f20;fill-opacity:1;fill-rule:nonzero;stroke:none"
         id="path56" /><path
         d="m 174.359,105.297 c 3.926,0 7.106,-3.188 7.106,-7.113 0,-3.926 -3.18,-7.11 -7.106,-7.11 -3.929,0 -7.113,3.184 -7.113,7.11 0,3.925 3.184,7.113 7.113,7.113 M 10.102,91.074 c -3.93,0 -7.114,3.184 -7.114,7.11 0,3.925 3.184,7.113 7.114,7.113 3.925,0 7.109,-3.188 7.109,-7.113 0,-3.926 -3.184,-7.11 -7.109,-7.11 M 26.527,42.078 c -3.925,0 -7.113,3.184 -7.113,7.11 0,3.929 3.188,7.113 7.113,7.113 3.926,0 7.11,-3.184 7.11,-7.113 0,-3.926 -3.184,-7.11 -7.11,-7.11 m 0,32.66 c -3.925,0 -7.113,3.188 -7.113,7.114 0,3.925 3.188,7.109 7.113,7.109 3.926,0 7.11,-3.184 7.11,-7.109 0,-3.926 -3.184,-7.114 -7.11,-7.114 m 0,32.668 c -3.925,0 -7.113,3.184 -7.113,7.11 0,3.925 3.188,7.109 7.113,7.109 3.926,0 7.11,-3.184 7.11,-7.109 0,-3.926 -3.184,-7.11 -7.11,-7.11 m 0,32.66 c -3.925,0 -7.113,3.184 -7.113,7.11 0,3.926 3.188,7.109 7.113,7.109 3.926,0 7.11,-3.183 7.11,-7.109 0,-3.926 -3.184,-7.11 -7.11,-7.11 M 42.953,25.75 c -3.93,0 -7.109,3.184 -7.109,7.109 0,3.93 3.179,7.11 7.109,7.11 3.926,0 7.109,-3.18 7.109,-7.11 0,-3.925 -3.183,-7.109 -7.109,-7.109 m 0,32.66 c -3.93,0 -7.109,3.184 -7.109,7.11 0,3.925 3.179,7.113 7.109,7.113 3.926,0 7.109,-3.188 7.109,-7.113 0,-3.926 -3.183,-7.11 -7.109,-7.11 m 0,32.664 c -3.93,0 -7.109,3.184 -7.109,7.11 0,3.925 3.179,7.113 7.109,7.113 3.926,0 7.109,-3.188 7.109,-7.113 0,-3.926 -3.183,-7.11 -7.109,-7.11 m 0,32.66 c -3.93,0 -7.109,3.184 -7.109,7.11 0,3.926 3.179,7.109 7.109,7.109 3.926,0 7.109,-3.183 7.109,-7.109 0,-3.926 -3.183,-7.11 -7.109,-7.11 m 0,32.661 c -3.93,0 -7.109,3.183 -7.109,7.113 0,3.926 3.179,7.109 7.109,7.109 3.926,0 7.109,-3.183 7.109,-7.109 0,-3.93 -3.183,-7.113 -7.109,-7.113 M 59.379,42.078 c -3.93,0 -7.109,3.184 -7.109,7.11 0,3.929 3.179,7.113 7.109,7.113 3.926,0 7.105,-3.184 7.105,-7.113 0,-3.926 -3.179,-7.11 -7.105,-7.11 m 0,32.66 c -3.93,0 -7.109,3.188 -7.109,7.114 0,3.925 3.179,7.109 7.109,7.109 3.926,0 7.105,-3.184 7.105,-7.109 0,-3.926 -3.179,-7.114 -7.105,-7.114 m 0,32.668 c -3.93,0 -7.109,3.184 -7.109,7.11 0,3.925 3.179,7.109 7.109,7.109 3.926,0 7.105,-3.184 7.105,-7.109 0,-3.926 -3.179,-7.11 -7.105,-7.11 m 0,32.66 c -3.93,0 -7.109,3.184 -7.109,7.11 0,3.926 3.179,7.109 7.109,7.109 3.926,0 7.105,-3.183 7.105,-7.109 0,-3.926 -3.179,-7.11 -7.105,-7.11 M 75.805,25.75 c -3.93,0 -7.11,3.184 -7.11,7.109 0,3.93 3.18,7.11 7.11,7.11 3.925,0 7.105,-3.18 7.105,-7.11 0,-3.925 -3.18,-7.109 -7.105,-7.109 m 0,32.66 c -3.93,0 -7.11,3.184 -7.11,7.11 0,3.925 3.18,7.113 7.11,7.113 3.925,0 7.105,-3.188 7.105,-7.113 0,-3.926 -3.18,-7.11 -7.105,-7.11 m 0,32.664 c -3.93,0 -7.11,3.184 -7.11,7.11 0,3.925 3.18,7.113 7.11,7.113 3.925,0 7.105,-3.188 7.105,-7.113 0,-3.926 -3.18,-7.11 -7.105,-7.11 m 0,32.66 c -3.93,0 -7.11,3.184 -7.11,7.11 0,3.926 3.18,7.109 7.11,7.109 3.925,0 7.105,-3.183 7.105,-7.109 0,-3.926 -3.18,-7.11 -7.105,-7.11 m 0,32.661 c -3.93,0 -7.11,3.183 -7.11,7.113 0,3.926 3.18,7.109 7.11,7.109 3.925,0 7.105,-3.183 7.105,-7.109 0,-3.93 -3.18,-7.113 -7.105,-7.113 M 92.23,9.418 c -3.929,0 -7.109,3.184 -7.109,7.109 0,3.926 3.18,7.11 7.109,7.11 3.926,0 7.11,-3.184 7.11,-7.11 0,-3.925 -3.184,-7.109 -7.11,-7.109 m 0,32.66 c -3.929,0 -7.109,3.184 -7.109,7.11 0,3.929 3.18,7.113 7.109,7.113 3.926,0 7.11,-3.184 7.11,-7.113 0,-3.926 -3.184,-7.11 -7.11,-7.11 m 0,32.66 c -3.929,0 -7.109,3.188 -7.109,7.114 0,3.925 3.18,7.109 7.109,7.109 3.926,0 7.11,-3.184 7.11,-7.109 0,-3.926 -3.184,-7.114 -7.11,-7.114 m 0,32.668 c -3.929,0 -7.109,3.184 -7.109,7.11 0,3.925 3.18,7.109 7.109,7.109 3.926,0 7.11,-3.184 7.11,-7.109 0,-3.926 -3.184,-7.11 -7.11,-7.11 m 0,32.66 c -3.929,0 -7.109,3.184 -7.109,7.11 0,3.926 3.18,7.109 7.109,7.109 3.926,0 7.11,-3.183 7.11,-7.109 0,-3.926 -3.184,-7.11 -7.11,-7.11 m 0,32.661 c -3.929,0 -7.109,3.183 -7.109,7.109 0,3.926 3.18,7.113 7.109,7.113 3.926,0 7.11,-3.187 7.11,-7.113 0,-3.926 -3.184,-7.109 -7.11,-7.109 M 108.656,25.75 c -3.929,0 -7.113,3.184 -7.113,7.109 0,3.93 3.184,7.11 7.113,7.11 3.926,0 7.11,-3.18 7.11,-7.11 0,-3.925 -3.184,-7.109 -7.11,-7.109 m 0,32.66 c -3.929,0 -7.113,3.184 -7.113,7.11 0,3.925 3.184,7.113 7.113,7.113 3.926,0 7.11,-3.188 7.11,-7.113 0,-3.926 -3.184,-7.11 -7.11,-7.11 m 0,32.664 c -3.929,0 -7.113,3.184 -7.113,7.11 0,3.925 3.184,7.113 7.113,7.113 3.926,0 7.11,-3.188 7.11,-7.113 0,-3.926 -3.184,-7.11 -7.11,-7.11 m 0,32.66 c -3.929,0 -7.113,3.184 -7.113,7.11 0,3.926 3.184,7.109 7.113,7.109 3.926,0 7.11,-3.183 7.11,-7.109 0,-3.926 -3.184,-7.11 -7.11,-7.11 m 0,32.661 c -3.929,0 -7.113,3.183 -7.113,7.113 0,3.926 3.184,7.109 7.113,7.109 3.926,0 7.11,-3.183 7.11,-7.109 0,-3.93 -3.184,-7.113 -7.11,-7.113 M 125.082,42.078 c -3.93,0 -7.113,3.184 -7.113,7.11 0,3.929 3.183,7.113 7.113,7.113 3.926,0 7.109,-3.184 7.109,-7.113 0,-3.926 -3.183,-7.11 -7.109,-7.11 m 0,32.66 c -3.93,0 -7.113,3.188 -7.113,7.114 0,3.925 3.183,7.109 7.113,7.109 3.926,0 7.109,-3.184 7.109,-7.109 0,-3.926 -3.183,-7.114 -7.109,-7.114 m 0,32.668 c -3.93,0 -7.113,3.184 -7.113,7.11 0,3.925 3.183,7.109 7.113,7.109 3.926,0 7.109,-3.184 7.109,-7.109 0,-3.926 -3.183,-7.11 -7.109,-7.11 m 0,32.66 c -3.93,0 -7.113,3.184 -7.113,7.11 0,3.926 3.183,7.109 7.113,7.109 3.926,0 7.109,-3.183 7.109,-7.109 0,-3.926 -3.183,-7.11 -7.109,-7.11 M 141.508,25.75 c -3.93,0 -7.113,3.184 -7.113,7.109 0,3.93 3.183,7.11 7.113,7.11 3.926,0 7.109,-3.18 7.109,-7.11 0,-3.925 -3.183,-7.109 -7.109,-7.109 m 0,32.66 c -3.93,0 -7.113,3.184 -7.113,7.11 0,3.925 3.183,7.113 7.113,7.113 3.926,0 7.109,-3.188 7.109,-7.113 0,-3.926 -3.183,-7.11 -7.109,-7.11 m 0,32.664 c -3.93,0 -7.113,3.184 -7.113,7.11 0,3.925 3.183,7.113 7.113,7.113 3.926,0 7.109,-3.188 7.109,-7.113 0,-3.926 -3.183,-7.11 -7.109,-7.11 m 0,32.66 c -3.93,0 -7.113,3.184 -7.113,7.11 0,3.926 3.183,7.109 7.113,7.109 3.926,0 7.109,-3.183 7.109,-7.109 0,-3.926 -3.183,-7.11 -7.109,-7.11 m 0,32.661 c -3.93,0 -7.113,3.183 -7.113,7.113 0,3.926 3.183,7.109 7.113,7.109 3.926,0 7.109,-3.183 7.109,-7.109 0,-3.93 -3.183,-7.113 -7.109,-7.113 M 157.934,42.078 c -3.93,0 -7.114,3.184 -7.114,7.11 0,3.929 3.184,7.113 7.114,7.113 3.925,0 7.109,-3.184 7.109,-7.113 0,-3.926 -3.184,-7.11 -7.109,-7.11 m 0,32.66 c -3.93,0 -7.114,3.188 -7.114,7.114 0,3.925 3.184,7.109 7.114,7.109 3.925,0 7.109,-3.184 7.109,-7.109 0,-3.926 -3.184,-7.114 -7.109,-7.114 m 0,32.668 c -3.93,0 -7.114,3.184 -7.114,7.11 0,3.925 3.184,7.109 7.114,7.109 3.925,0 7.109,-3.184 7.109,-7.109 0,-3.926 -3.184,-7.11 -7.109,-7.11 m 0,32.66 c -3.93,0 -7.114,3.184 -7.114,7.11 0,3.926 3.184,7.109 7.114,7.109 3.925,0 7.109,-3.183 7.109,-7.109 0,-3.926 -3.184,-7.11 -7.109,-7.11"
         style="fill:#231f20;fill-opacity:1;fill-rule:nonzero;stroke:none"
         id="path58" /><path
         d="m 92.23,121.625 c -3.929,0 -7.109,-3.184 -7.109,-7.109 0,-3.926 3.18,-7.11 7.109,-7.11 3.926,0 7.106,3.184 7.106,7.11 0,3.925 -3.18,7.109 -7.106,7.109"
         style="fill:#231f20;fill-opacity:1;fill-rule:nonzero;stroke:none"
         id="path60" /><path
         d="m 59.379,121.625 c -3.93,0 -7.109,-3.184 -7.109,-7.109 0,-3.926 3.179,-7.11 7.109,-7.11 3.926,0 7.105,3.184 7.105,7.11 0,3.925 -3.179,7.109 -7.105,7.109"
         style="fill:#231f20;fill-opacity:1;fill-rule:nonzero;stroke:none"
         id="path62" /><path
         d="m 26.527,121.625 c -3.929,0 -7.113,-3.184 -7.113,-7.109 0,-3.926 3.184,-7.11 7.113,-7.11 3.926,0 7.11,3.184 7.11,7.11 0,3.925 -3.184,7.109 -7.11,7.109"
         style="fill:#231f20;fill-opacity:1;fill-rule:nonzero;stroke:none"
         id="path64" /><path
         d="m 125.082,121.625 c -3.93,0 -7.113,-3.184 -7.113,-7.109 0,-3.926 3.183,-7.11 7.113,-7.11 3.926,0 7.109,3.184 7.109,7.11 0,3.925 -3.183,7.109 -7.109,7.109"
         style="fill:#231f20;fill-opacity:1;fill-rule:nonzero;stroke:none"
         id="path66" /><path
         d="m 157.934,121.625 c -3.93,0 -7.114,-3.184 -7.114,-7.109 0,-3.926 3.184,-7.11 7.114,-7.11 3.925,0 7.109,3.184 7.109,7.11 0,3.925 -3.184,7.109 -7.109,7.109"
         style="fill:#231f20;fill-opacity:1;fill-rule:nonzero;stroke:none"
         id="path68" /><path
         d="m 92.23,154.285 c -3.929,0 -7.109,-3.183 -7.109,-7.109 0,-3.926 3.18,-7.11 7.109,-7.11 3.926,0 7.106,3.184 7.106,7.11 0,3.926 -3.18,7.109 -7.106,7.109"
         style="fill:#231f20;fill-opacity:1;fill-rule:nonzero;stroke:none"
         id="path70" /><path
         d="m 59.379,154.285 c -3.93,0 -7.109,-3.183 -7.109,-7.109 0,-3.926 3.179,-7.11 7.109,-7.11 3.926,0 7.105,3.184 7.105,7.11 0,3.926 -3.179,7.109 -7.105,7.109"
         style="fill:#231f20;fill-opacity:1;fill-rule:nonzero;stroke:none"
         id="path72" /><path
         d="m 26.527,154.285 c -3.929,0 -7.113,-3.183 -7.113,-7.109 0,-3.926 3.184,-7.11 7.113,-7.11 3.926,0 7.11,3.184 7.11,7.11 0,3.926 -3.184,7.109 -7.11,7.109"
         style="fill:#231f20;fill-opacity:1;fill-rule:nonzero;stroke:none"
         id="path74" /><path
         d="m 125.082,154.285 c -3.93,0 -7.113,-3.183 -7.113,-7.109 0,-3.926 3.183,-7.11 7.113,-7.11 3.926,0 7.109,3.184 7.109,7.11 0,3.926 -3.183,7.109 -7.109,7.109"
         style="fill:#231f20;fill-opacity:1;fill-rule:nonzero;stroke:none"
         id="path76" /><path
         d="m 157.934,154.285 c -3.93,0 -7.114,-3.183 -7.114,-7.109 0,-3.926 3.184,-7.11 7.114,-7.11 3.925,0 7.109,3.184 7.109,7.11 0,3.926 -3.184,7.109 -7.109,7.109"
         style="fill:#231f20;fill-opacity:1;fill-rule:nonzero;stroke:none"
         id="path78" /><path
         d="m 92.23,186.949 c -3.929,0 -7.109,-3.187 -7.109,-7.113 0,-3.926 3.18,-7.109 7.109,-7.109 3.926,0 7.106,3.183 7.106,7.109 0,3.926 -3.18,7.113 -7.106,7.113"
         style="fill:#231f20;fill-opacity:1;fill-rule:nonzero;stroke:none"
         id="path80" /><path
         d="m 59.379,172.727 c 3.926,0 7.105,3.183 7.105,7.109 0,1.301 -0.371,2.504 -0.984,3.555 -4.504,-1.411 -8.84,-3.18 -13.004,-5.254 0.766,-3.102 3.543,-5.41 6.883,-5.41"
         style="fill:#231f20;fill-opacity:1;fill-rule:nonzero;stroke:none"
         id="path82" /><path
         d="m 125.082,172.727 c 3.336,0 6.113,2.308 6.879,5.406 -4.164,2.078 -8.504,3.847 -13.004,5.258 -0.609,-1.051 -0.988,-2.254 -0.988,-3.555 0,-3.926 3.183,-7.109 7.113,-7.109"
         style="fill:#231f20;fill-opacity:1;fill-rule:nonzero;stroke:none"
         id="path84" /><path
         d="m 92.23,23.637 c -3.929,0 -7.109,-3.184 -7.109,-7.11 0,-3.925 3.18,-7.109 7.109,-7.109 3.926,0 7.106,3.184 7.106,7.109 0,3.926 -3.18,7.11 -7.106,7.11"
         style="fill:#231f20;fill-opacity:1;fill-rule:nonzero;stroke:none"
         id="path86" /><path
         d="m 59.379,23.637 c -3.34,0 -6.117,-2.309 -6.883,-5.41 4.164,-2.075 8.5,-3.844 13.004,-5.254 0.613,1.05 0.984,2.254 0.984,3.554 0,3.926 -3.179,7.11 -7.105,7.11"
         style="fill:#231f20;fill-opacity:1;fill-rule:nonzero;stroke:none"
         id="path88" /><path
         d="m 125.082,23.637 c -3.93,0 -7.113,-3.184 -7.113,-7.11 0,-1.3 0.379,-2.504 0.988,-3.554 4.5,1.414 8.84,3.183 13.004,5.257 -0.766,3.098 -3.543,5.407 -6.879,5.407"
         style="fill:#231f20;fill-opacity:1;fill-rule:nonzero;stroke:none"
         id="path90" /><path
         d="m 108.656,39.973 c -3.926,0 -7.113,-3.188 -7.113,-7.114 0,-3.925 3.187,-7.109 7.113,-7.109 3.926,0 7.11,3.184 7.11,7.109 0,3.926 -3.184,7.114 -7.11,7.114"
         style="fill:#231f20;fill-opacity:1;fill-rule:nonzero;stroke:none"
         id="path92" /><path
         d="m 75.805,39.973 c -3.93,0 -7.11,-3.188 -7.11,-7.114 0,-3.925 3.18,-7.109 7.11,-7.109 3.925,0 7.105,3.184 7.105,7.109 0,3.926 -3.18,7.114 -7.105,7.114"
         style="fill:#231f20;fill-opacity:1;fill-rule:nonzero;stroke:none"
         id="path94" /><path
         d="m 42.953,39.973 c -3.926,0 -7.113,-3.188 -7.113,-7.114 0,-3.925 3.187,-7.109 7.113,-7.109 3.926,0 7.109,3.184 7.109,7.109 0,3.926 -3.183,7.114 -7.109,7.114"
         style="fill:#231f20;fill-opacity:1;fill-rule:nonzero;stroke:none"
         id="path96" /><path
         d="m 141.508,39.973 c -3.93,0 -7.113,-3.188 -7.113,-7.114 0,-3.925 3.183,-7.109 7.113,-7.109 3.926,0 7.109,3.184 7.109,7.109 0,3.926 -3.183,7.114 -7.109,7.114"
         style="fill:#231f20;fill-opacity:1;fill-rule:nonzero;stroke:none"
         id="path98" /><path
         d="m 92.23,56.301 c -3.929,0 -7.109,-3.188 -7.109,-7.113 0,-3.926 3.18,-7.11 7.109,-7.11 3.926,0 7.106,3.184 7.106,7.11 0,3.925 -3.18,7.113 -7.106,7.113"
         style="fill:#231f20;fill-opacity:1;fill-rule:nonzero;stroke:none"
         id="path100" /><path
         d="m 59.379,56.301 c -3.93,0 -7.109,-3.188 -7.109,-7.113 0,-3.926 3.179,-7.11 7.109,-7.11 3.926,0 7.105,3.184 7.105,7.11 0,3.925 -3.179,7.113 -7.105,7.113"
         style="fill:#231f20;fill-opacity:1;fill-rule:nonzero;stroke:none"
         id="path102" /><path
         d="m 26.527,56.301 c -3.929,0 -7.113,-3.188 -7.113,-7.113 0,-3.926 3.184,-7.11 7.113,-7.11 3.926,0 7.11,3.184 7.11,7.11 0,3.925 -3.184,7.113 -7.11,7.113"
         style="fill:#231f20;fill-opacity:1;fill-rule:nonzero;stroke:none"
         id="path104" /><path
         d="m 125.082,56.301 c -3.93,0 -7.113,-3.188 -7.113,-7.113 0,-3.926 3.183,-7.11 7.113,-7.11 3.926,0 7.109,3.184 7.109,7.11 0,3.925 -3.183,7.113 -7.109,7.113"
         style="fill:#231f20;fill-opacity:1;fill-rule:nonzero;stroke:none"
         id="path106" /><path
         d="m 157.934,56.301 c -3.93,0 -7.114,-3.188 -7.114,-7.113 0,-3.926 3.184,-7.11 7.114,-7.11 3.925,0 7.109,3.184 7.109,7.11 0,3.925 -3.184,7.113 -7.109,7.113"
         style="fill:#231f20;fill-opacity:1;fill-rule:nonzero;stroke:none"
         id="path108" /><path
         d="m 108.656,72.633 c -3.926,0 -7.113,-3.188 -7.113,-7.113 0,-3.926 3.187,-7.11 7.113,-7.11 3.926,0 7.11,3.184 7.11,7.11 0,3.925 -3.184,7.113 -7.11,7.113"
         style="fill:#231f20;fill-opacity:1;fill-rule:nonzero;stroke:none"
         id="path110" /><path
         d="m 75.805,72.633 c -3.93,0 -7.11,-3.188 -7.11,-7.113 0,-3.926 3.18,-7.11 7.11,-7.11 3.925,0 7.105,3.184 7.105,7.11 0,3.925 -3.18,7.113 -7.105,7.113"
         style="fill:#231f20;fill-opacity:1;fill-rule:nonzero;stroke:none"
         id="path112" /><path
         d="m 42.953,72.633 c -3.926,0 -7.113,-3.188 -7.113,-7.113 0,-3.926 3.187,-7.11 7.113,-7.11 3.926,0 7.109,3.184 7.109,7.11 0,3.925 -3.183,7.113 -7.109,7.113"
         style="fill:#231f20;fill-opacity:1;fill-rule:nonzero;stroke:none"
         id="path114" /><path
         d="m 141.508,72.633 c -3.93,0 -7.113,-3.188 -7.113,-7.113 0,-3.926 3.183,-7.11 7.113,-7.11 3.926,0 7.109,3.184 7.109,7.11 0,3.925 -3.183,7.113 -7.109,7.113"
         style="fill:#231f20;fill-opacity:1;fill-rule:nonzero;stroke:none"
         id="path116" /><path
         d="m 167.246,65.52 c 0,-3.215 2.152,-5.903 5.082,-6.782 2.074,4.196 3.832,8.567 5.231,13.102 -0.969,0.488 -2.043,0.793 -3.2,0.793 -3.929,0 -7.113,-3.188 -7.113,-7.113"
         style="fill:#231f20;fill-opacity:1;fill-rule:nonzero;stroke:none"
         id="path118" /><path
         d="m 108.656,105.297 c -3.926,0 -7.113,-3.188 -7.113,-7.113 0,-3.926 3.187,-7.11 7.113,-7.11 3.926,0 7.11,3.184 7.11,7.11 0,3.925 -3.184,7.113 -7.11,7.113"
         style="fill:#231f20;fill-opacity:1;fill-rule:nonzero;stroke:none"
         id="path120" /><path
         d="m 75.805,105.297 c -3.93,0 -7.11,-3.188 -7.11,-7.113 0,-3.926 3.18,-7.11 7.11,-7.11 3.925,0 7.105,3.184 7.105,7.11 0,3.925 -3.18,7.113 -7.105,7.113"
         style="fill:#231f20;fill-opacity:1;fill-rule:nonzero;stroke:none"
         id="path122" /><path
         d="m 42.953,105.297 c -3.926,0 -7.113,-3.188 -7.113,-7.113 0,-3.926 3.187,-7.11 7.113,-7.11 3.926,0 7.109,3.184 7.109,7.11 0,3.925 -3.183,7.113 -7.109,7.113"
         style="fill:#231f20;fill-opacity:1;fill-rule:nonzero;stroke:none"
         id="path124" /><path
         d="m 17.211,65.52 c 0,3.925 -3.184,7.113 -7.109,7.113 -1.157,0 -2.235,-0.305 -3.204,-0.797 1.399,-4.531 3.161,-8.906 5.227,-13.098 2.934,0.875 5.086,3.567 5.086,6.782"
         style="fill:#231f20;fill-opacity:1;fill-rule:nonzero;stroke:none"
         id="path126" /><path
         d="m 10.102,105.297 c -3.93,0 -7.114,-3.188 -7.114,-7.113 0,-3.926 3.184,-7.11 7.114,-7.11 3.925,0 7.109,3.184 7.109,7.11 0,3.925 -3.184,7.113 -7.109,7.113"
         style="fill:#231f20;fill-opacity:1;fill-rule:nonzero;stroke:none"
         id="path128" /><path
         d="m 17.211,130.844 c 0,3.218 -2.149,5.906 -5.086,6.785 -2.066,-4.195 -3.828,-8.567 -5.227,-13.102 0.969,-0.492 2.047,-0.793 3.204,-0.793 3.925,0 7.109,3.184 7.109,7.11"
         style="fill:#231f20;fill-opacity:1;fill-rule:nonzero;stroke:none"
         id="path130" /><path
         d="m 141.508,105.297 c -3.93,0 -7.113,-3.188 -7.113,-7.113 0,-3.926 3.183,-7.11 7.113,-7.11 3.926,0 7.109,3.184 7.109,7.11 0,3.925 -3.183,7.113 -7.109,7.113"
         style="fill:#231f20;fill-opacity:1;fill-rule:nonzero;stroke:none"
         id="path132" /><path
         d="m 174.359,91.07 c 3.926,0 7.106,3.188 7.106,7.114 0,3.925 -3.18,7.109 -7.106,7.109 -3.929,0 -7.113,-3.184 -7.113,-7.109 0,-3.926 3.184,-7.114 7.113,-7.114"
         style="fill:#231f20;fill-opacity:1;fill-rule:nonzero;stroke:none"
         id="path134" /><path
         d="m 108.656,170.617 c -3.926,0 -7.113,-3.183 -7.113,-7.109 0,-3.93 3.187,-7.113 7.113,-7.113 3.926,0 7.11,3.183 7.11,7.113 0,3.926 -3.184,7.109 -7.11,7.109"
         style="fill:#231f20;fill-opacity:1;fill-rule:nonzero;stroke:none"
         id="path136" /><path
         d="m 75.805,170.617 c -3.93,0 -7.11,-3.183 -7.11,-7.109 0,-3.93 3.18,-7.113 7.11,-7.113 3.925,0 7.105,3.183 7.105,7.113 0,3.926 -3.18,7.109 -7.105,7.109"
         style="fill:#231f20;fill-opacity:1;fill-rule:nonzero;stroke:none"
         id="path138" /><path
         d="m 42.953,170.617 c -3.926,0 -7.113,-3.183 -7.113,-7.109 0,-3.93 3.187,-7.113 7.113,-7.113 3.926,0 7.109,3.183 7.109,7.113 0,3.926 -3.183,7.109 -7.109,7.109"
         style="fill:#231f20;fill-opacity:1;fill-rule:nonzero;stroke:none"
         id="path140" /><path
         d="m 141.508,170.617 c -3.93,0 -7.113,-3.183 -7.113,-7.109 0,-3.93 3.183,-7.113 7.113,-7.113 3.926,0 7.109,3.183 7.109,7.113 0,3.926 -3.183,7.109 -7.109,7.109"
         style="fill:#231f20;fill-opacity:1;fill-rule:nonzero;stroke:none"
         id="path142" /><path
         d="m 92.23,88.961 c -3.929,0 -7.109,-3.184 -7.109,-7.109 0,-3.926 3.18,-7.114 7.109,-7.114 3.926,0 7.106,3.188 7.106,7.114 0,3.925 -3.18,7.109 -7.106,7.109"
         style="fill:#231f20;fill-opacity:1;fill-rule:nonzero;stroke:none"
         id="path144" /><path
         d="m 59.379,88.961 c -3.93,0 -7.109,-3.184 -7.109,-7.109 0,-3.926 3.179,-7.114 7.109,-7.114 3.926,0 7.105,3.188 7.105,7.114 0,3.925 -3.179,7.109 -7.105,7.109"
         style="fill:#231f20;fill-opacity:1;fill-rule:nonzero;stroke:none"
         id="path146" /><path
         d="m 26.527,88.961 c -3.929,0 -7.113,-3.184 -7.113,-7.109 0,-3.926 3.184,-7.114 7.113,-7.114 3.926,0 7.11,3.188 7.11,7.114 0,3.925 -3.184,7.109 -7.11,7.109"
         style="fill:#231f20;fill-opacity:1;fill-rule:nonzero;stroke:none"
         id="path148" /><path
         d="m 125.082,88.961 c -3.93,0 -7.113,-3.184 -7.113,-7.109 0,-3.926 3.183,-7.114 7.113,-7.114 3.926,0 7.109,3.188 7.109,7.114 0,3.925 -3.183,7.109 -7.109,7.109"
         style="fill:#231f20;fill-opacity:1;fill-rule:nonzero;stroke:none"
         id="path150" /><path
         d="m 157.934,88.961 c -3.93,0 -7.114,-3.184 -7.114,-7.109 0,-3.926 3.184,-7.114 7.114,-7.114 3.925,0 7.109,3.188 7.109,7.114 0,3.925 -3.184,7.109 -7.109,7.109"
         style="fill:#231f20;fill-opacity:1;fill-rule:nonzero;stroke:none"
         id="path152" /><path
         d="m 108.656,137.953 c -3.926,0 -7.113,-3.183 -7.113,-7.109 0,-3.926 3.187,-7.11 7.113,-7.11 3.926,0 7.11,3.184 7.11,7.11 0,3.926 -3.184,7.109 -7.11,7.109"
         style="fill:#231f20;fill-opacity:1;fill-rule:nonzero;stroke:none"
         id="path154" /><path
         d="m 75.805,137.953 c -3.93,0 -7.11,-3.183 -7.11,-7.109 0,-3.926 3.18,-7.11 7.11,-7.11 3.925,0 7.105,3.184 7.105,7.11 0,3.926 -3.18,7.109 -7.105,7.109"
         style="fill:#231f20;fill-opacity:1;fill-rule:nonzero;stroke:none"
         id="path156" /><path
         d="m 42.953,137.953 c -3.926,0 -7.113,-3.183 -7.113,-7.109 0,-3.926 3.187,-7.11 7.113,-7.11 3.926,0 7.109,3.184 7.109,7.11 0,3.926 -3.183,7.109 -7.109,7.109"
         style="fill:#231f20;fill-opacity:1;fill-rule:nonzero;stroke:none"
         id="path158" /><path
         d="m 141.508,137.953 c -3.93,0 -7.113,-3.183 -7.113,-7.109 0,-3.926 3.183,-7.11 7.113,-7.11 3.926,0 7.109,3.184 7.109,7.11 0,3.926 -3.183,7.109 -7.109,7.109"
         style="fill:#231f20;fill-opacity:1;fill-rule:nonzero;stroke:none"
         id="path160" /><path
         d="m 167.246,130.844 c 0,-3.926 3.184,-7.11 7.113,-7.11 1.157,0 2.231,0.301 3.2,0.793 -1.399,4.532 -3.157,8.907 -5.231,13.102 -2.93,-0.879 -5.082,-3.567 -5.082,-6.785"
         style="fill:#231f20;fill-opacity:1;fill-rule:nonzero;stroke:none"
         id="path162" /></g></g></svg>